<?xml version="1.0" encoding="utf-8"?>
<!-- Generator: Adobe Illustrator 25.0.0, SVG Export Plug-In . SVG Version: 6.00 Build 0)  -->
<svg version="1.1" id="Layer_1" xmlns="http://www.w3.org/2000/svg" xmlns:xlink="http://www.w3.org/1999/xlink" x="0px" y="0px"
	 viewBox="0 0 450 200" style="enable-background:new 0 0 450 200;" xml:space="preserve">
<style type="text/css">
	.st0{fill:#FDFEFE;}
</style>
<g>
	<path class="st0" d="M429.1,197.3c-137.6,0-275.3,0-412.9,0c0-64.3,0-128.6,0-193c137.6,0,275.3,0,412.9,0
		C429.1,68.6,429.1,133,429.1,197.3z M351.7,8.8c-1.2,1.4-2.1,2.8-3.3,3.9c-1.8,2-4.1,3.2-6.9,3.3c-7.8,0.2-15.5,0.3-23.3-0.2
		c-8.4-0.5-16.9-0.8-25.4-1.2c-4.1-0.2-8.2-0.5-12.3-0.5c-4,0-7.4,1.2-9,5.2c-0.7,1.7-1.2,3.6-1.5,5.4c-0.4,2-0.1,4.1-0.7,6
		c-1.1,3.2-2.5,6.4-4,9.5c-1.7,3.7-4,7-7.4,9.3c-0.2,0.1-0.3,0.3-0.5,0.5c0.4-0.1,0.7-0.2,1.1-0.3c-1.6,2.2-3.1,4.4-4.6,6.5
		c0,0,0,0.1,0.1,0.1c0.5-0.4,1.1-0.9,1.6-1.3c0.1,0.2,0.2,0.4,0.3,0.7c1.8-1.2,2.8-3,3.9-4.9c-0.1,0.6-0.1,1-0.2,1.4
		c1.5-1.5,3-3,4-4.7c1.6-2.6,2.8-5.3,4.3-8c2.3-4.3,3.8-8.7,4.1-13.6c0.1-2.3,1.2-4.3,2.9-5.8c0.3-0.3,0.8-0.5,1.3-0.8
		c0,0.6,0,1,0,1.3c-0.1,2-0.3,4-0.5,5.9c-0.3,3.7,0.2,7.3,2.1,10.5c0.4,0.6,0.5,1.3,0.4,2.1c-0.1,2.2,0,4.4,0.1,6.5
		c0.1,1.5,0.8,2.9,0.8,4.3c-0.1,2.3-0.6,4.7-0.9,7c-0.2,1.6-0.7,3-0.1,4.8c1.4,4,1.9,8.3,1.7,12.6c-0.1,1.3-0.5,2.7,0.8,3.8
		c0.4,0.4,0.4,1.2,0.5,1.9c0.1,0.6,0,1.2,0,2.1c1.7,0,3.3,0,4.9,0c0.3,0,0.9-0.5,0.9-0.8c0-1.6-0.3-3.3-1.9-4.1
		c-1.6-0.8-1.8-2.1-1.9-3.6c-0.1-2.8-0.4-5.6-0.5-8.5c0-1.2,0.2-2.4,0.4-3.6c1.4,1.8,2.1,3.7,2.4,5.7c0.4,2.9,0.9,5.8,1.4,8.7
		c0,0.3,0.3,0.7,0.6,0.8c0.9,0.4,1.4,1,1.7,1.9c0.2,0.7,0.3,1.5,0.6,2.3c0.1,0.3,0.5,0.8,0.8,0.9c1.3,0.1,2.7,0.1,4,0
		c0.2,0,0.4-0.2,0.5-0.4c0.3-1.1-0.9-3.7-2-4.1c-1.3-0.5-1.9-1.4-2.1-2.7c-0.1-0.7-0.3-1.4-0.4-2.1c-0.6-3.5-1.1-7-1.6-10.5
		c-0.2-1.1-0.2-2.2-0.3-3.2c1.3-0.1,2.4-0.3,3.6-0.4c0.5,0,1-0.2,1.3,0.6c0.1,0.4,0.6,1,1,1.1c0.5,0.1,1.1-0.2,1.5-0.5
		c0.4-0.4,0.5-1,0.7-1.5c0.2-0.4,0.4-0.8,0.8-1.1c1.7-1.1,3.2-2.4,4.4-4c0.2-0.2,0.4-0.5,0.6-0.5c1.9-0.2,3.9-0.7,5.7-0.4
		c4.2,0.8,8.4,1.6,12.7,1.4c3.7-0.2,7.4-0.6,11.1-0.9c0,0,0.1,0.2,0.1,0.4c0.7,5.5,1.6,10.9,2.2,16.4c0.3,2.4,0.1,4.8,0.2,7.2
		c0,0.8,0.3,1.2,1.4,0.9c0,1.1,0,2,0,2.9c0,0.9,0.5,1.1,1.2,1.1c1.1,0,2.2-0.1,3.3-0.1c1.2,0,1.5-0.4,1.4-1.6
		c-0.1-1.2-0.7-2.4-1.6-2.9c-1.9-1-2.1-2.5-1.7-4.3c0-0.2,0-0.4,0-0.6c0.2-1.9,0.4-3.8,0.7-5.7c0.2,0.9,0.4,1.7,0.5,2.6
		c0.4,2.3,0.9,4.6,1.3,6.9c0.1,0.3,0.5,0.7,0.8,0.7c0.9,0,0.9,0.4,0.8,1.1c-0.2,0.8-0.3,1.6-0.4,2.4c-0.1,1.1,0.4,1.4,1.5,1.3
		c1-0.1,2.1-0.1,3.1,0c1.2,0.1,1.7-0.3,1.6-1.5c-0.2-1.6-0.9-3-2.3-3.7c-1.2-0.7-1.7-1.7-1.8-2.9c-0.1-1-0.3-2-0.2-3
		c0.4-5.7,0.9-11.4,1.5-17.1c0-0.3,0.4-0.8,0.7-0.9c2-1,3.5-2.5,4.3-4.6c0.4-1.1,0.8-2.2,1.2-3.3c0.7-2.6,1.3-5.2,2.2-7.8
		c1.6-5,4.2-9.6,6.4-14.4c0.3-0.6,0.7-0.5,1.2-0.4c2.2,0.2,4.4,0.6,6.5,0.5c4.1-0.3,4.1-0.2,4.8-4.2c0-0.1,0-0.2,0.1-0.3
		c0.3-0.9-0.1-1.5-0.8-1.9c-2.7-1.3-4.6-3.6-6.7-5.7c-1.2-1.3-2.4-2.7-3.7-3.9c-2.2-2.1-4.6-2.1-7-0.3c-0.5,0.4-1.3,0.6-2,0.7
		c-1.2,0.1-2.1,0.5-2.9,1.5C350.4,8.3,350.9,8.5,351.7,8.8z M192.5,80.8c-0.4-1.9-1.3-2.8-3.1-3.1c-1.2-0.2-1.9-0.9-2.3-1.9
		c-1.2-2.9-1.4-5.7,0.4-8.4c1.1-1.7,2.3-3.4,3.6-5c2.5-3.1,4.8-6.3,5.3-10.4c0.1-0.6,0.5-0.6,0.9-0.6c4.1,0,7.8,1.3,11.1,3.8
		c4,3,8.5,4.1,13.3,3.7c1.1-0.1,1.4,0.3,1.5,1.3c0.6,4.2,1.2,8.5,1.9,12.7c0.4,2.4,1.2,4.5,3.8,5.2c0.2,0.1,0.4,0.3,0.5,0.5
		c1.5,2.1,4.7,2.3,6.6,0.5c-0.1-0.1-0.2-0.3-0.3-0.4c-1.1-0.9-2.1-1.9-3.2-2.8c-1.3-0.9-1.9-2-1.6-3.6c0.1-0.7,0.2-1.5,0.2-2.2
		c-0.3-3.7-0.1-7.4,0.8-10.9c1.2-4.7,2.8-9.4,3.7-14.2c0.5-2.9,1.3-5.8,2.7-8.4c0.8-1.6,2-2.7,4-2.5c0.5,0,1,0,1.5,0
		c2.8,0,5.3-0.6,6.4-3.7c0-0.1,0-0.1,0-0.3c-1-0.6-2-1.3-3.1-1.7c-1.5-0.5-2.8-1.3-3.7-2.6c-1-1.3-2.2-2.1-3.8-2.5
		c-0.7-0.2-1.3-0.4-1.9-0.6c-2.3-0.8-3.9-0.3-5.3,1.7c-1.4,1.9-2.7,3.8-4,5.7c-0.7,1-1.5,1.9-2.4,2.7c-1.4,1.3-2.8,2.4-4.3,3.6
		c-1.9,1.5-4,2.2-6.4,2.2c-6.3,0-12.6-1-18.8-1.8c-3.3-0.4-6.1,0.3-8.3,2.8c-3.2,3.5-5.6,7.4-7,12c-0.7,2.2-1.5,4.3-2.9,6.2
		c-0.7,0.9-1.1,2-1.4,3.1c-0.4,1.2-0.3,2.4,0.2,3.7c2.3-3.5,4.4-6.9,6.6-10.3c0.1,0.2,0.1,0.2,0.1,0.3c-0.7,3.6-2.1,6.9-3.6,10.3
		c-0.1,0.3-0.3,0.6-0.5,0.7c-1.6,1.3-2,3.1-2.3,5c-0.1,0.6-0.2,1.2-0.3,1.8c-0.4,2.5-0.8,4.9-0.3,7.4c0.3,1.3,1.1,2.1,2.4,2.2
		c1.6,0.1,2.2-0.3,2.8-1.7c-1.4-1-2.1-2.3-2.2-4c0-3.1,1.2-5.7,3.2-8.3c0.1,0.9,0.1,1.6,0.2,2.3c0.3,3.1,1,6.2,2.4,9
		c0.6,1.2,1.5,2,2.9,2.3C189.8,81.6,191.1,81.5,192.5,80.8z M83.1,77.8c-1.2-0.2-2.3-0.3-3.2-0.6c-0.4-0.1-0.9-0.7-0.9-1
		c0-0.5,0.4-1,0.7-1.4c0.2-0.3,0.6-0.4,1-0.5c3-0.6,6-1.5,9.1-0.4c1.9,0.7,3.8,0.3,5.5-0.8c1.3-0.9,1.5-1.9,0.6-3
		c-0.2-0.2-0.3-0.6-0.5-0.9c-1.4-3.3-3.7-5.8-6.8-7.5c-1.8-1-3-2.4-3.8-4.3c-0.4-1-1.1-2-1.8-2.9c-0.7-1-1.7-1.3-2.9-0.9
		c-1.2,0.4-2.1,1-2.4,2.3c-0.2,1,0,1.3,1,1.6c0.2,0,0.3,0.1,0.4,0.2c-0.5,1-0.9,1.9-1.3,2.8c-0.6-0.1-1.4-0.2-2.1-0.3
		c-2.4-0.3-4.9-0.6-7.3-1c-3.5-0.6-6.9-1.5-10.5-1.3c-7.1,0.6-13.4,2.8-17.3,9.3c-0.2,0.3-0.8,0.6-1.1,0.5c-1.3-0.4-2.7-0.8-3.8-1.6
		c-3.7-2.4-6.2-5.8-8.1-9.8c-1.5-3.1-2.9-6.1-4.5-9.2c-1.2-2.2-2.9-4-5.3-5c-0.3-0.1-0.6-0.2-0.9-0.3c0,0.1-0.1,0.2-0.1,0.2
		c2.3,1,3.9,2.9,5,5.1c1.4,3,2.8,6,4.2,9.1c1.4,3.1,2.8,6.1,5.3,8.5c2,2,4,4.1,7,4.6c1.2,0.2,2,0.8,2.9,1.6c1.8,1.7,3.6,3.5,5.5,5
		c1.3,1.1,2.9,1.9,4.4,2.8c0.7-1.5,0.7-1.5,1.9-0.8c0.3,0.2,0.6,0.2,1,0.4c-0.5-1.8-0.7-1.9-2.3-1.5c-0.5,0.1-1.1,0.1-1.5-0.1
		c-0.8-0.5-1.4-1.2-2.3-1.9c0.7,0,1.1,0.1,1.5,0.1c3,0.1,6,0.3,9,0.4c1.6,0.1,3.2,0,4.7,0.1c3.6,0.3,7.2,0.9,10.9-0.1
		c1.2-0.3,2.1,0.4,2.8,1.4c0.3,0.5,0.8,1.1,1.3,1.3c1,0.3,2.1,0.4,3.1,0.5c0.4,0.1,0.7,0.1,1.2,0.1C82.3,78.6,82.6,78.2,83.1,77.8z
		 M154,78.8c0.1-0.1,0.1-0.2,0.2-0.4c-0.5-0.3-0.9-0.7-1.4-0.8c-1.4-0.2-2.8-0.3-4.2-0.4c-0.9,0-1.5-0.4-1.9-1.2
		c-0.8-1.4-1.6-2.8-2.5-4.2c-0.3-0.4-0.5-0.9-0.8-1.4c1.2-0.7,2.2-1.2,3.2-1.8c3.9-2.3,6.5-5.7,7.5-10.1c0.6-2.6,0.9-5.2,1.2-7.8
		c0.2-1.3,0.5-2.4,2-2.8c0.8-0.2,1.5-0.7,2.3-1c0.7-0.3,1.3-0.7,2-1c0-0.1-0.1-0.1-0.1-0.2c-0.3,0-0.7,0-1.1-0.1
		c0.4-0.2,0.7-0.3,1.2-0.5c-0.7-0.2-1.1-0.3-1.6-0.4c-0.5-0.1-0.9-0.2-1.4-0.2c-0.9,0-1.5-0.5-1.9-1.3c-2.2-3.7-7.2-4.3-10-1.1
		c-0.8,0.9-1.3,2.2-1.8,3.3c-0.4,0.8-0.5,1.6-1.5,2.1c-5.1,2.4-10.1,4.9-15.2,7.3c-4.2,1.9-8.6,3.1-13.2,2.8c-0.1,0-0.2,0-0.5,0.1
		c3.3,1.3,6.5,1.7,9.9,1.7c0,0.1,0,0.2,0,0.2c-2.4,0-4.8,0-7.4,0c1.6,1.9,3.4,3,5.6,3.5c-0.2,0.1-0.3,0.2-0.5,0.4
		c1.7,0.3,3.3,0.6,4.9,0.8c0,0.1,0,0.2,0,0.2c-6.1,2-12.3,4-18.4,5.9c3.9,0.8,7.7-0.2,11.5-0.3c-2.9,1.2-5.8,2.3-8.7,3.5
		c0,0,0.1,0.1,0.2,0.1c0.2,0.1,0.5,0.1,0.7,0.1c2.9,0.4,5.8-0.1,8.5-1.1c3.9-1.4,7.8-2.8,11.7-4.2c0.6-0.2,1.1-0.3,1.2,0.6
		c0.3,2.4,0.7,4.7,1.1,7.1c0.2,1-0.2,1.4-1.1,1.6c-0.7,0.1-1.3,0.4-2,0.7c0,0.2,0,0.3,0,0.5c3-1.8,5.2,0.2,7.8,1.4
		c-0.1-0.5-0.2-0.8-0.3-1.1c0.8,0,1.5,0,2.2,0c-1-0.4-2.1-0.7-3.1-0.8c-0.9-0.1-1.6-0.5-1.8-1.3c-0.4-1.3-0.7-2.7-0.9-4.1
		c-0.3-1.4-0.4-2.9-0.6-4.3c1.8,0.3,3.5,0.5,5.2,0.9c0.8,0.2,1.7,0.6,2.1,1.2c1.2,1.6,2.2,3.3,3.2,5c0.4,0.6,0.1,1-0.6,1.1
		c-0.5,0.1-1,0.1-1.4,0.1c0,0.1,0,0.2,0,0.3c2.4,0.6,4.8,1.2,7.4,1.9c-0.3-0.6-0.5-0.8-0.7-1.3C151.6,78.4,152.8,78.6,154,78.8z
		 M234.1,172.5c0.1,1,0.2,1.8,0.3,2.6c0.8,4.2,3.2,7,7.5,7.9c1.7,0.3,3.5,0.4,5.2,0.3c4-0.3,7.2-2.1,8.8-6.1
		c0.9-2.1,0.9-4.3,0.6-6.5c-0.4-3.2-2.1-5.7-4.7-7.4c-1.4-0.9-2.9-1.6-4.3-2.4c-1.3-0.7-2.7-1.4-4-2.2c-1.3-0.8-1.8-2.1-1.9-3.6
		c-0.1-2.4,1-3.9,3.1-4.2c2-0.3,3.6,0.8,4.2,3c0.2,0.5,0.2,1.1,0.3,1.6c0.1,0.2,0.3,0.5,0.5,0.5c2,0,4,0,6,0c0-0.7-0.1-1.2-0.1-1.7
		c-0.4-4.5-3-7.6-7.4-8.4c-1.6-0.3-3.2-0.3-4.8-0.1c-4,0.4-6.9,2.4-8,6.4c-1.1,4.1-0.8,8.1,2.7,11c1.6,1.3,3.5,2.2,5.2,3.3
		c1.6,1,3.3,1.8,4.7,3c1.8,1.5,2.3,4.6,1.1,6.7c-0.4,0.7-1.2,1.4-2,1.7c-2.7,1.1-5.2-0.2-6.1-2.9c-0.3-0.8-0.4-1.6-0.6-2.4
		C238.5,172.5,236.4,172.5,234.1,172.5z M33.1,182.7c3.1-12.2,6.1-24.4,9.2-36.6c-2.4,0-4.7,0-6.9,0c-2,9.6-4,19.2-6.1,28.9
		c-0.1-0.3-0.2-0.5-0.2-0.8c-0.8-4.1-1.4-8.3-2.3-12.4c-1-5-2.1-10-3.2-15c-0.1-0.3-0.4-0.7-0.6-0.7c-2.2-0.1-4.4,0-6.6,0
		c0,0.2-0.1,0.2,0,0.2c3,11.9,5.9,23.9,8.9,35.8c0.1,0.2,0.5,0.5,0.7,0.5C28.4,182.7,30.7,182.7,33.1,182.7z M402.8,46.7
		c-3.6-4.1-3-7.8-0.8-10.2c1.2-1.4,2.8-2.1,4.6-2.3c2.6-0.3,4.6,1,6.3,2.8c0.7-0.8,1.4-1.4,2-2.1c0.8-1,1.3-2.1,0.7-3.5
		c-0.4-0.8,0-1.5,0.6-2.1c0.6-0.5,1.2-1,1.7-1.6c0.8-0.8,0.8-1.4,0-2.2c-1.3-1.4-2.7-2.7-4-4c-0.8-0.8-1.7-0.8-2.6,0
		c-0.5,0.5-0.9,1.1-1.5,1.5c-0.4,0.3-1.1,0.6-1.5,0.5c-2-0.8-3.4,0.1-4.8,1.4c-4.8,4.8-9.6,9.6-14.5,14.3c-1.4,1.3-2.6,2.6-2.7,4.7
		c-0.1,1.1-0.8,2.2-1.4,3.2c-0.7,1.4-0.6,1.8,0.4,2.9c1.1,1.1,2.2,2.3,3.3,3.4c1.3,1.3,1.6,1.3,3.2,0.5c1.4-0.8,2.9-1.5,4.6-1.4
		c0.4,0,0.8-0.2,1.1-0.4C399.4,50.2,401.1,48.5,402.8,46.7z M202.7,193.2c1.3,0,2.6,0,3.8,0c2.5,0,4.5-1.1,5.8-3.3
		c0.8-1.4,1.5-2.9,2-4.4c2.8-10,5.6-20.1,8.4-30.1c0.1-0.2,0-0.4,0-0.7c-1.9,0-3.8,0-5.6,0c-0.7,0-0.9,0.3-1,0.8
		c-0.9,3.9-1.8,7.7-2.7,11.6c-0.5,2.3-1,4.7-1.5,7.2c-0.1-0.6-0.2-1-0.2-1.3c-1.2-5.6-2.5-11.2-3.8-16.8c-0.3-1.5-0.3-1.5-1.9-1.5
		c-1.8,0-3.7,0-5.6,0c0.1,0.3,0.1,0.5,0.2,0.6c2.6,8.8,5.2,17.6,7.8,26.3c0.5,1.6,0.2,2.9-0.5,4.3c-0.6,1.2-1.5,1.8-2.8,1.8
		c-0.8,0-1.5,0-2.3,0C202.7,189.4,202.7,191.2,202.7,193.2z M172.2,165.7c-1.3,0-2.6-0.1-3.8,0c-2.5,0.2-4.8,0.8-6.7,2.5
		c-3,2.8-3.4,6.3-2.3,9.9c0.8,2.9,2.8,4.7,5.9,5c2.8,0.3,5.3-0.2,7.3-2.7c0.1,0.8,0.2,1.5,0.3,2.1c2,0,4,0,5.7,0c0-2.3,0-4.5,0-6.8
		c0-4.8,0-9.5,0-14.3c0-3.7-2.1-6.2-5.7-7c-2.4-0.6-4.8-0.6-7.1,0c-3.8,0.9-6.2,4.3-5.8,8.1c2,0,4,0,6.1,0c0.1-0.4,0.1-0.8,0.2-1.2
		c0.3-1.7,1.4-2.4,3.3-2.3c1.6,0.1,2.5,1,2.5,2.7C172.2,163.1,172.2,164.3,172.2,165.7z M319.9,154.7c0,9.4,0,18.7,0,28
		c2.2,0,4.3,0,6.5,0c0-0.5,0-0.9,0-1.3c0-5.4,0-10.8,0-16.2c0-0.7,0.1-1.5,0.2-2.2c0.3-1.9,1.3-3,2.9-3.1c2.4-0.1,3.6,0.9,3.6,3.4
		c0,6.1,0,12.2,0.1,18.2c0,0.4,0,0.8,0,1.2c2.2,0,4.3,0,6.6,0c0-0.4,0-0.8,0-1.2c0-6.1,0-12.2,0-18.3c0-0.9-0.1-1.8-0.2-2.7
		c-0.4-3.1-2.2-5.4-4.8-6c-3.2-0.7-6.1-0.2-8.1,2.6c0,0-0.1,0-0.2,0c-0.1-0.8-0.2-1.5-0.3-2.3C324,154.7,322,154.7,319.9,154.7z
		 M155.1,182.7c0-0.5,0-0.9,0-1.3c0-6,0-12.1,0-18.1c0-0.9-0.1-1.9-0.2-2.8c-0.5-4-3-6.3-7.1-6.3c-2.5,0-4.5,0.9-6,3.1
		c-0.1-1-0.2-1.7-0.3-2.5c-2.1,0-4.1,0-6.2,0c0,9.4,0,18.6,0,27.9c2.2,0,4.3,0,6.5,0c0-0.4,0-0.8,0-1.2c0-5.5,0-10.9,0-16.4
		c0-1.2,0.3-2.5,0.7-3.6c0.5-1.3,1.8-1.8,3.6-1.6c1.2,0.2,1.9,0.9,2.2,2.2c0.1,0.4,0.2,0.9,0.2,1.3c0,6,0,12.1,0,18.1
		c0,0.4,0,0.8,0,1.2C150.7,182.7,152.8,182.7,155.1,182.7z M309.1,174.3c-0.2,0.6-0.2,1-0.4,1.5c-0.5,1.3-1.5,2-2.8,2.1
		c-1.4,0.2-2.6-0.2-3.3-1.4c-1.1-1.8-1.2-3.8-1.1-6c4.7,0,9.3,0,13.9,0c0.5-2.8,0.1-7.8-1-10.4c-0.5-1.1-1.1-2.2-1.9-3.1
		c-4.7-5.1-13.9-3.2-16.3,3.5c-2,5.6-1.9,11.4,0,17.1c1,3,3.1,5,6.3,5.5c1.7,0.3,3.5,0.3,5.2,0.1c4.3-0.5,7.6-4.5,7.5-8.8
		C313.2,174.3,311.2,174.3,309.1,174.3z M87.3,170.4c4.9,0,9.5,0,14.2,0c0.2-3.8,0.2-7.4-1.2-10.8c-0.6-1.6-1.6-2.9-3-3.8
		c-5.3-3.5-12.8-1.3-15,4.7c-2,5.6-1.9,11.4-0.1,17.1c1,3,3.1,4.9,6.3,5.5c1.1,0.2,2.3,0.3,3.5,0.3c5.3-0.2,9.2-4,9.3-9
		c-2,0-4.1,0-6.1,0c-0.1,0.2-0.1,0.3-0.1,0.4c-0.4,2-1.5,3-3.3,3.1c-1.9,0.1-3.2-0.8-3.8-2.8C87.6,173.6,87.5,172.1,87.3,170.4z
		 M62.6,170.4c0.2-3.6,0.2-7-1-10.3c-0.4-1.1-1.1-2.3-1.9-3.2c-4.7-5.1-13.9-3.1-16.3,3.5c-2,5.6-1.9,11.4,0,17.1c1,3,3.2,5,6.3,5.5
		c1.7,0.3,3.4,0.3,5.1,0.1c4.3-0.5,7.8-4.6,7.6-8.9c-1.7,0-3.4,0-5.1,0c-0.7,0-1,0.1-1.2,0.9c-0.3,1.5-1.3,2.4-2.8,2.7
		c-1.4,0.2-2.7-0.1-3.5-1.3c-1.2-1.8-1.3-3.9-1.1-6.1C53.3,170.4,57.9,170.4,62.6,170.4z M408.3,174.2c-0.2,3.3,1.5,6.5,4.3,7.9
		c2.4,1.2,5,1.3,7.7,1c3.8-0.5,6.6-2.8,7.3-6.3c0.9-4.3-0.4-7.5-4-9.5c-1.4-0.8-3-1.3-4.5-2c-1-0.5-2-0.9-2.9-1.5
		c-1-0.7-1.2-1.9-0.8-3.1c0.4-1.1,1.2-1.6,2.4-1.6c1.6,0,2.5,0.8,2.9,2.3c0.1,0.5,0.2,0.9,0.2,1.3c2.1,0,4.1,0,6.2,0
		c0.1-3.8-1.9-6.8-5.1-8c-2.2-0.8-4.4-0.8-6.7-0.4c-3.3,0.6-5.8,2.9-6.3,6c-0.6,3.6,0.2,6.6,3.4,8.4c1.5,0.9,3.2,1.5,4.8,2.3
		c1,0.5,2,0.9,2.9,1.6c1.2,0.9,1.4,2.7,0.8,4.1c-0.6,1.1-2,1.7-3.5,1.4c-1.8-0.4-2.6-1.4-2.9-3.9c-0.2,0-0.4-0.1-0.6-0.1
		C412.1,174.2,410.3,174.2,408.3,174.2z M389.5,162.9c0.3-3.2-1.6-6.6-4.5-7.8c-2.3-1-4.8-1.1-7.3-0.6c-3.3,0.6-5.8,2.9-6.3,6.1
		c-0.6,3.7,0.2,6.6,3.5,8.4c1.5,0.9,3.2,1.5,4.8,2.3c1,0.5,2.1,0.9,2.9,1.6c1.7,1.4,1.4,4.2-0.3,5.1c-2,1-4.4,0-5.1-2.1
		c-0.1-0.5-0.2-1-0.3-1.5c-2.1,0-4.2,0-6.3,0c-0.2,3.8,2,7.1,5.5,8.3c3,1,6,0.9,8.9-0.1c6.3-2.1,6.5-11.2,2.5-14
		c-1.7-1.2-3.7-2-5.6-3c-1-0.5-2.1-0.9-3-1.4c-1.2-0.7-1.6-1.9-1.2-3.2c0.4-1.2,1.2-1.8,2.6-1.7c1.4,0,2.4,0.8,2.7,2.1
		c0.1,0.5,0.2,1,0.3,1.5C385.5,162.9,387.5,162.9,389.5,162.9z M22.6,91.8c0,12.3,0,24.6,0,36.8c1,0,2,0,2.9,0c0-10.7,0-21.3,0-32.1
		c0.1,0.3,0.2,0.4,0.3,0.6c1.3,3.3,2.6,6.6,3.9,9.9c2.8,7,5.6,13.9,8.4,20.9c0.1,0.3,0.4,0.8,0.7,0.8c1.2,0.1,2.3,0,3.5,0
		c0-12.3,0-24.6,0-36.8c-1.1,0-2,0-3.1,0c0,5.3,0,10.5,0,15.7c0,5.2,0.2,10.4,0.3,15.9c-1.7-4.2-3.4-8.2-5-12.3
		c-2.5-6.2-5-12.4-7.6-18.6c-0.1-0.3-0.5-0.8-0.7-0.8C25.1,91.8,23.9,91.8,22.6,91.8z M279.8,163.8c0.5-3.2-1.4-7-4.3-8.5
		c-5.6-3-12.4-0.4-14.4,5.6c-1.7,5.3-1.6,10.8,0,16.1c0.9,3.2,3.1,5.4,6.5,6.1c2.2,0.4,4.3,0.3,6.4-0.4c4-1.3,6.1-5.5,5.8-9.4
		c-2,0-4.1,0-6.1,0c-0.2,0.9-0.4,1.8-0.7,2.6c-0.4,1.2-1.3,1.8-2.6,1.9c-1.3,0.1-2.2-0.5-2.8-1.7c-0.2-0.5-0.5-1.1-0.6-1.6
		c-0.2-2.7-0.4-5.4-0.5-8c0-1.8,0.2-3.6,1.1-5.3c0.6-1.2,1.7-1.7,3-1.6c1.1,0.1,1.9,0.8,2.3,2.1c0.2,0.7,0.3,1.4,0.4,2.1
		C275.6,163.8,277.7,163.8,279.8,163.8z M395,147.7c0,2.4,0,4.6,0,7c-1.3,0-2.4,0-3.6,0c0,1.8,0,3.5,0,5.4c1.2,0,2.4,0,3.7,0
		c0,0.5,0,0.9,0,1.3c0,5.3,0,10.7,0,16c0,2.3,0.6,4.4,3,5.2c2.2,0.8,4.5,0.7,6.8,0.1c0.2-0.1,0.6-0.3,0.6-0.4c0-1.5,0-3,0-4.5
		c-0.4,0-0.6,0.1-0.9,0.1c-2.5,0.1-3.1-0.4-3.1-2.9c0-4.6,0-9.2,0-13.8c0-0.4,0-0.7,0-1.2c1.5,0,2.9,0,4.3,0c0-1.6,0-3.1,0-4.5
		c0-0.7-0.2-0.9-0.9-0.9c-1.1,0-2.3,0-3.5,0c0-2.4,0-4.6,0-6.9C399.4,147.7,397.3,147.7,395,147.7z M356.5,177.8c-0.3,0-0.6,0-0.8,0
		c-2.6,0.1-3.1-0.4-3.1-2.9c0-4.6,0-9.2,0-13.8c0-0.4,0-0.7,0-1.2c1.5,0,2.9,0,4.3,0c0-1.6,0-3.1,0-4.5c0-0.7-0.3-0.9-0.9-0.8
		c-1.1,0-2.2,0-3.4,0c0-2.3,0-4.6,0-6.9c-2.2,0-4.4,0-6.6,0c0,2.3,0,4.6,0,6.9c-1.2,0-2.4,0-3.6,0c0,1.8,0,3.5,0,5.4
		c1.2,0,2.4,0,3.6,0c0,0.5,0,0.8,0,1.2c0,5.4,0,10.7,0,16.1c0,2.2,0.6,4.4,3,5.3c2.2,0.8,4.6,0.7,6.9,0.1c0.2-0.1,0.6-0.4,0.6-0.5
		C356.5,180.7,356.5,179.3,356.5,177.8z M68,147.7c0,2.3,0,4.6,0,6.9c-1.3,0-2.4,0-3.6,0c0,1.8,0,3.6,0,5.4c1.2,0,2.4,0,3.6,0
		c0,0.5,0,0.8,0,1.2c0,5.4,0,10.7,0,16.1c0,2.2,0.6,4.3,2.9,5.2c2.3,0.9,4.6,0.7,7,0.1c0.2-0.1,0.5-0.3,0.5-0.5c0-1.5,0-2.9,0-4.5
		c-0.3,0-0.5,0.1-0.7,0.1c-2.6,0.2-3.2-0.4-3.2-3c0-4.6,0-9.1,0-13.7c0-0.4,0-0.7,0-1.2c1.5,0,2.9,0,4.3,0c0-1.6,0-3,0-4.5
		c0-0.7-0.3-0.9-0.9-0.9c-1.1,0-2.2,0-3.4,0c0-2.4,0-4.6,0-6.9C72.3,147.7,70.2,147.7,68,147.7z M394.5,75c-2.7,0-5.2,0-7.7,0
		c-3,0-5.6,2.1-6.3,5.1c-0.4,1.9,0,2.4,1.9,2.4c4.3,0,8.6,0,12.9,0.1c6.1,0,12.1,0.1,18.2,0.1c1.1,0,1.4-0.5,1.4-1.5
		c-0.1-3.1-2.7-5.7-5.7-5.9c-2.4-0.1-4.7-0.1-7.1-0.2c-0.4,0-0.7,0-1.1-0.1c0-1.5,0-2.8,0-4.1c-0.1-1.7-0.9-2.8-2.2-3.1
		c-2.4-0.6-4.2,0.8-4.3,3.5C394.4,72.4,394.5,73.6,394.5,75z M200.3,128.6c-2.9-11.4-5.8-22.7-8.6-34c-0.2-0.9-0.3-2.2-0.9-2.7
		c-0.6-0.5-1.9-0.1-2.8-0.2c-0.9-0.1-1.2,0.3-1.4,1.1c-2.3,9.3-4.5,18.6-6.8,27.8c-0.6,2.6-1.3,5.2-1.9,7.9c1.1,0,2.1,0,3.2,0
		c1-4.2,2-8.3,3-12.5c3.3,0,6.6,0,9.9,0c1,4.2,2,8.3,3,12.5C198,128.6,199.1,128.6,200.3,128.6z M190.8,182.7c0-4.2,0-8.4,0-12.5
		c0-1.3,0.1-2.7,0.2-4c0.2-2.4,1.5-3.8,3.9-4.3c1-0.2,2-0.3,3.1-0.4c0-2.4,0-4.8,0-7.2c-3.3,0-5.7,1.4-7.3,4.3
		c-0.1-1.1-0.1-2.1-0.1-3.1c0-0.3-0.3-0.7-0.5-0.7c-1.9-0.1-3.8,0-5.7,0c0,9.4,0,18.7,0,28C186.5,182.7,188.6,182.7,190.8,182.7z
		 M105.9,154.6c0,9.4,0,18.7,0,28c2.2,0,4.3,0,6.4,0c0-0.1,0.1-0.2,0.1-0.3c0-4,0-8,0-12c0-1.4,0.1-2.8,0.2-4.2
		c0.2-2.4,1.5-3.8,3.9-4.3c1-0.2,2-0.3,3.1-0.4c0-2.4,0-4.8,0-7.2c-3.3,0-5.7,1.4-7.3,4.3c-0.1-1.1-0.1-2.1-0.1-3.1
		c0-0.3-0.3-0.7-0.5-0.7C109.7,154.6,107.8,154.6,105.9,154.6z M64.4,128.6c0-1.7,0-3.4,0-5c0-5.3,0-10.7,0-16c0-2.7-1-5-3.6-6
		c-2.6-1-5.2-1-7.8,0.1c-2.6,1.1-4.4,4.5-3.8,7c0.9,0,1.9,0,2.8,0c0.1-0.4,0.1-0.7,0.1-1c0.4-3.6,3.1-4.6,6.5-3.9
		c1.2,0.3,2,1.1,2.3,2.2c0.7,2.2,0.4,4.4,0.4,6.6c-1.3,0-2.6,0-3.8,0c-6.3,0.2-10.5,3.9-9.6,10.3c0.4,2.7,1.6,4.8,4.3,5.8
		c2.9,1,7.3,0.4,8.9-2.6c0-0.1,0.2-0.1,0.3-0.1c0.1,0.9,0.2,1.7,0.3,2.5C62.7,128.6,63.5,128.6,64.4,128.6z M150.6,112.6
		c-2,0.1-3.9,0.1-5.7,0.3c-4.5,0.6-7.6,3.4-7.8,7.7c-0.3,5.9,3.3,9.6,9.4,8.3c1.8-0.4,3.1-1.4,4.1-3.1c0.1,1.1,0.2,1.9,0.3,2.8
		c1,0,1.9,0,2.9,0c-0.1-1.7-0.2-3.2-0.2-4.8c0-5.4,0-10.7,0-16.1c0-3.2-1.6-5.5-4.2-6.3c-1.9-0.6-3.9-0.6-5.8-0.1
		c-3.5,0.9-5.7,4.1-5.2,7.5c1,0,1.9,0,2.9,0c0.1-0.6,0.2-1.1,0.3-1.6c0.4-2.1,1.8-3.3,3.9-3.4c0.5,0,1,0,1.5,0
		c1.8,0.1,3.2,1.2,3.5,3C150.5,108.6,150.5,110.6,150.6,112.6z M312.2,128.6c0-1.7,0-3.3,0-4.9c0-5.3,0-10.7,0-16
		c0-3.2-1.6-5.5-4.3-6.3c-1.9-0.6-3.9-0.6-5.8-0.1c-3.5,0.9-5.7,4.1-5.2,7.5c1,0,1.9,0,2.9,0c0.1-0.6,0.2-1.1,0.3-1.6
		c0.4-2.1,1.8-3.3,3.9-3.4c0.5,0,1,0,1.5,0c1.8,0.1,3.2,1.2,3.5,3c0.3,1.9,0.3,3.9,0.4,5.9c-2.1,0.1-3.9,0.1-5.7,0.3
		c-4.5,0.6-7.6,3.4-7.8,7.7c-0.3,5.9,3.3,9.6,9.4,8.3c1.8-0.4,3.1-1.4,4.1-3.1c0.1,1.1,0.2,1.9,0.3,2.8
		C310.5,128.6,311.4,128.6,312.2,128.6z M110.4,114.9c-0.2-1.9-0.3-3.9-0.6-5.8c-0.5-2.7-1.5-5.3-4-6.9c-4.3-2.8-10-1-12.2,3.9
		c-1.1,2.5-1.5,5.2-1.5,7.9c0,3.4,0.1,6.9,1.4,10.1c1,2.3,2.5,4.1,5,4.8c4.7,1.4,8.7-0.7,10.4-5.3
		C110,120.7,110.2,117.8,110.4,114.9z M261.4,114.7c0-2.6-0.2-5.3-1.1-7.8c-0.7-1.9-1.7-3.6-3.5-4.7c-4.3-2.7-10-0.9-12.1,3.9
		c-1.1,2.5-1.5,5.2-1.5,7.9c-0.1,3.5,0.1,6.9,1.5,10.2c1,2.3,2.5,4,5,4.7c4.7,1.3,8.6-0.7,10.3-5.3
		C261.1,120.7,261.4,117.8,261.4,114.7z M358.2,114.7c-0.2-1.9-0.3-3.8-0.6-5.7c-0.5-2.7-1.5-5.3-4-6.9c-4.3-2.8-10-0.9-12.2,3.9
		c-1.1,2.5-1.4,5.2-1.5,7.9c0,3.4,0.1,6.9,1.4,10.1c1,2.3,2.5,4.1,5,4.8c4.8,1.4,8.9-0.8,10.6-5.7
		C357.8,120.4,358.1,117.6,358.2,114.7z M413.6,114.8c-0.1-1.6-0.2-3.3-0.4-4.9c-0.1-1-0.4-2-0.8-3c-0.6-1.9-1.7-3.6-3.4-4.7
		c-4.3-2.7-10-0.9-12.1,3.9c-1.1,2.5-1.5,5.2-1.5,8c0,3.4,0.1,6.9,1.5,10.1c1,2.3,2.5,4,5,4.7c4.7,1.3,8.6-0.7,10.3-5.3
		C413.3,120.7,413.6,117.8,413.6,114.8z M409.5,48.3c2.5,3.6,3.1,7.4,1.6,11.4c-1.5,4-4.5,6.4-8.6,7.6c0.3,2.1,0.6,4.2,0.8,6.2
		c7.2-1,13.2-6.6,14.7-14.1c1.1-5.7,0.2-11-3.8-15.7C412.6,45.3,411,46.8,409.5,48.3z M132.2,128.6c0-6.7,0-13.3,0-20
		c0-0.3,0-0.6,0-0.9c-0.2-3.4-2-5.8-4.8-6.5c-3.1-0.8-6.7-0.1-8.6,3.3c0,0-0.1,0-0.2,0.1c-0.1-1-0.1-2.1-0.2-3.1c-1.1,0-2,0-2.9,0
		c0,9.1,0,18.1,0,27.2c1.1,0,2,0,3.1,0c0-0.4,0-0.8,0-1.1c0-4.8,0-9.6,0-14.4c0-2.3,0.1-4.7,1.2-6.8c1-1.8,3-2.8,5.2-2.5
		c2.1,0.3,3.2,1.3,3.7,3.6c0.2,0.7,0.2,1.5,0.2,2.3c0,5.9,0,11.8,0,17.7c0,0.4,0,0.8,0,1.2C130.2,128.6,131.2,128.6,132.2,128.6z
		 M363.4,101.4c0,9.1,0,18.2,0,27.2c1.1,0,2,0,3.1,0c0-0.4,0-0.8,0-1.2c0-4.8,0-9.6,0-14.4c0-2.3,0.1-4.7,1.2-6.8
		c1-1.8,3-2.7,5.2-2.4c2.1,0.3,3.2,1.3,3.7,3.5c0.2,0.7,0.2,1.5,0.2,2.3c0,5.9,0,11.8,0,17.7c0,0.4,0,0.8,0,1.2c1.1,0,2.1,0,3.2,0
		c0-7,0.2-14-0.1-21c-0.2-4.9-3.8-7.3-8.6-6.5c-2.2,0.4-3.7,1.6-4.8,3.7c-0.1-1.2-0.2-2.3-0.2-3.3
		C365.2,101.4,364.3,101.4,363.4,101.4z M394.7,60.2c-0.7-1.2-1.4-1.5-2.4-1.5c-2.9,0.1-5.9-0.1-8.8-0.1c-4.4,0-8.8-0.1-13.3,0
		c-0.4,0-0.9,0.7-1.3,1.1c0.4,0.3,0.9,0.7,1.3,1c0.2,0.1,0.5,0.1,0.7,0c0.7-0.1,1.1,0.1,1.4,0.9c0.7,1.9,2.1,3.1,4.2,3.4
		c0.6,0.1,1.3,0.2,1.9,0.2c1.7,7.9,8,9.4,13.8,8.3c0.3-2,0.5-4,0.8-6.2c-0.5-0.1-0.9-0.1-1.4-0.1c-1.1,0-2.3,0.1-3.4,0
		c-1.3-0.1-2.3-0.8-3.1-2c3.5-0.2,3.8-0.4,5.8-3.2c0.4-0.6,1.2-0.8,1.9-1.1C393.4,60.6,394,60.5,394.7,60.2z M203.2,121
		c0.1,4.3,2.2,7.1,5.9,7.9c2,0.4,4,0.3,5.9-0.3c1.8-0.6,3.3-1.8,4-3.6c1.4-3.5,1-8.3-3.4-10.6c-0.7-0.3-1.3-0.7-2-1
		c-1.3-0.6-2.7-1.1-4-1.8c-1.5-0.7-2.4-1.9-2.4-3.7c0-2.3,1.1-3.9,3.1-4.2c2.7-0.4,4.6,0.6,5.3,2.9c0.2,0.6,0.3,1.2,0.4,1.9
		c0.8,0,1.6,0,2.4,0c0.2,0,0.6-0.4,0.6-0.6c-0.2-3.1-1.4-5.9-5.1-6.7c-1.4-0.3-3-0.3-4.5,0c-2.6,0.5-4.4,2.1-5,4.8
		c-0.6,2.7-0.4,5.4,2.1,7.2c1.4,1,3,1.7,4.6,2.5c1.2,0.6,2.5,1.1,3.5,1.9c1.9,1.4,2.2,3.4,1.7,5.5c-0.4,1.8-1.6,2.8-3.4,3.2
		c-3.1,0.7-5.7-0.9-6.4-4c-0.1-0.4-0.2-0.8-0.3-1.3C205.3,121,204.3,121,203.2,121z M223.1,121c-0.1,4,2.2,7.1,5.8,7.9
		c2,0.5,4,0.3,6-0.3c1.9-0.7,3.4-1.9,4-3.9c1.3-3.8,0.8-8.3-3.8-10.5c-0.5-0.3-1.1-0.5-1.6-0.8c-1.3-0.6-2.7-1.2-4-1.8
		c-1.4-0.7-2.3-1.9-2.3-3.6c-0.1-2.3,1.1-3.9,3-4.3c2.7-0.5,4.7,0.6,5.4,2.9c0.2,0.6,0.2,1.2,0.4,1.9c0.8,0,1.7,0,2.5,0
		c0.2,0,0.5-0.4,0.5-0.5c-0.2-3.1-1.6-6.2-5.6-6.9c-1.3-0.2-2.6-0.2-3.9,0c-2.7,0.4-4.5,2-5.2,4.7c-0.6,2.8-0.4,5.5,2.1,7.3
		c1.4,1,3,1.7,4.5,2.5c1.1,0.6,2.2,1,3.2,1.6c2.2,1.4,2.9,4.2,1.8,6.6c-1,2.1-2.8,2.6-5,2.5c-1.9-0.1-3.6-1.3-4.3-3.2
		c-0.3-0.7-0.4-1.5-0.6-2.2C225.1,121,224.1,121,223.1,121z M123,154.7c0,9.4,0,18.7,0,28c2.2,0,4.2,0,6.3,0c0-9.3,0-18.6,0-28
		C127.2,154.7,125.1,154.7,123,154.7z M360.3,154.7c0,9.4,0,18.7,0,28c2.2,0,4.2,0,6.3,0c0-9.3,0-18.6,0-28
		C364.5,154.7,362.4,154.7,360.3,154.7z M290.4,182.7c0-9.4,0-18.7,0-28c-2.1,0-4.2,0-6.4,0c0,9.3,0,18.6,0,28
		C286.2,182.7,288.3,182.7,290.4,182.7z M279.4,120.7c-0.2,0.8-0.4,1.7-0.7,2.5c-0.7,1.9-2,3.1-4.1,3.2c-2,0.1-3.4-0.8-4.4-2.5
		c-0.3-0.6-0.6-1.2-0.8-1.9c-1.1-3.9-1.1-7.9-0.5-11.8c0.2-1.7,0.8-3.4,1.9-4.7c1.2-1.4,2.7-2,4.5-1.7c1.8,0.3,2.9,1.4,3.5,3
		c0.2,0.6,0.3,1.3,0.4,1.9c0.1,0.3,0.3,0.6,0.5,0.6c0.9,0.1,1.7,0,2.6,0c0-0.3,0.1-0.5,0.1-0.7c-0.2-5.5-5.1-9-10.4-7.4
		c-3,0.9-4.7,3.1-5.6,5.9c-1.7,5.4-1.6,10.8,0,16.1c1,3.3,3.2,5.5,6.8,5.8c6,0.6,9.1-3.9,9.1-8.5
		C281.4,120.7,280.4,120.7,279.4,120.7z M427,104.1c0-1,0-1.8,0-2.8c-1.5,0-2.9,0-4.5,0c0.1-2.2,0.1-4.3,0.3-6.4
		c0.2-1.4,1-2.1,2.5-2.2c0.8-0.1,1.5,0.1,2.3,0.1c0-0.9,0-1.8,0-2.7c-3.9-1.2-7,0.5-7.8,4.4c-0.3,1.5-0.3,3-0.3,4.5
		c0,0.8,0,1.5,0,2.4c-1.3,0-2.5,0-3.6,0c0,1,0,1.8,0,2.7c1.2,0,2.4,0,3.7,0c0,8.2,0,16.3,0,24.4c1.1,0,2.1,0,3.2,0
		c0-8.2,0-16.3,0-24.4C424.1,104.1,425.5,104.1,427,104.1z M71.6,104.1c0,0.5,0,0.9,0,1.2c0,4.5,0,9,0,13.5c0,2.1,0,4.2,0.1,6.3
		c0.1,2.5,1.7,3.9,4.2,4c0.3,0,0.7,0,1,0c2.3,0,2.6-0.3,2.4-2.6c0-0.1-0.1-0.1-0.1-0.2c-0.7,0-1.5,0-2.2,0c-1.3,0-1.8-0.5-2.1-1.7
		c-0.1-0.4-0.1-0.9-0.1-1.3c0-6,0-12.1,0-18.1c0-0.3,0-0.6,0-1c1.7,0,3.3,0,4.9,0c0-1,0-1.8,0-2.7c-1.6,0-3.2,0-4.9,0
		c0-2.5,0-4.9,0-7.3c-1.1,0-2,0-3.1,0c0,2.5,0,4.8,0,7.4c-1.4,0-2.6,0-3.9,0c0,1,0,1.8,0,2.7C69,104.1,70.2,104.1,71.6,104.1z
		 M319.4,104.1c0,0.5,0,0.9,0,1.2c0,4.5,0,9,0,13.5c0,2.1,0,4.2,0.1,6.3c0.1,2.5,1.7,3.9,4.2,4c0.3,0,0.7,0,1,0
		c2.3,0,2.6-0.3,2.4-2.6c0-0.1-0.1-0.1-0.1-0.2c-0.7,0-1.5,0-2.2,0c-1.3,0-1.8-0.5-2.1-1.7c-0.1-0.4-0.1-0.9-0.1-1.3
		c0-6,0-12.1,0-18.1c0-0.3,0-0.6,0-1c1.7,0,3.3,0,4.9,0c0-1,0-1.8,0-2.7c-1.6,0-3.2,0-4.9,0c0-2.5,0-4.9,0-7.3c-1.1,0-2,0-3.1,0
		c0,2.5,0,4.8,0,7.4c-1.4,0-2.6,0-3.9,0c0,1,0,1.8,0,2.7C316.8,104.1,318,104.1,319.4,104.1z M160.4,90.1c0,12.9,0,25.7,0,38.5
		c1,0,2,0,2.9,0c0-12.9,0-25.7,0-38.5C162.4,90.1,161.4,90.1,160.4,90.1z M331.5,101.4c0,9.1,0,18.2,0,27.2c1,0,2,0,2.9,0
		c0-9.1,0-18.1,0-27.2C333.4,101.4,332.5,101.4,331.5,101.4z M287.5,101.4c0,9.1,0,18.2,0,27.2c1,0,2,0,2.9,0c0-9.1,0-18.1,0-27.2
		C289.4,101.4,288.5,101.4,287.5,101.4z M83.6,101.4c0,9.1,0,18.2,0,27.2c1,0,2,0,2.9,0c0-9.1,0-18.1,0-27.2
		C85.6,101.4,84.6,101.4,83.6,101.4z M407.2,46c2.6,0,4.8-2.2,4.9-4.8c0-2.7-2.1-4.9-4.9-4.9c-2.7,0-4.8,2.1-4.8,4.8
		C402.4,43.8,404.5,46,407.2,46z M290.5,144.3c-2.2,0-4.3,0-6.4,0c0,2.2,0,4.2,0,6.3c2.2,0,4.3,0,6.4,0
		C290.5,148.5,290.5,146.4,290.5,144.3z M123,150.6c2.2,0,4.3,0,6.4,0c0-2.2,0-4.2,0-6.3c-2.2,0-4.3,0-6.4,0
		C123,146.5,123,148.5,123,150.6z M360.3,150.7c2.2,0,4.3,0,6.4,0c0-2.2,0-4.3,0-6.3c-2.2,0-4.3,0-6.4,0
		C360.3,146.5,360.3,148.5,360.3,150.7z M287.5,90.1c0,1.8,0,3.6,0,5.4c1,0,2,0,2.9,0c0-1.8,0-3.6,0-5.4
		C289.4,90.1,288.5,90.1,287.5,90.1z M334.4,90.1c-1,0-2,0-3,0c0,1.8,0,3.6,0,5.4c1,0,2,0,3,0C334.4,93.7,334.4,91.9,334.4,90.1z
		 M83.6,90.1c0,1.8,0,3.6,0,5.4c1,0,2,0,2.9,0c0-1.8,0-3.6,0-5.4C85.5,90.1,84.6,90.1,83.6,90.1z"/>
	<path class="st0" d="M351.7,8.8c-0.8-0.3-1.3-0.5-2-0.8c0.7-1,1.7-1.4,2.9-1.5c0.7-0.1,1.5-0.2,2-0.7c2.4-1.9,4.8-1.9,7,0.3
		c1.3,1.2,2.4,2.6,3.7,3.9c2,2.1,4,4.3,6.7,5.7c0.7,0.4,1.1,1,0.8,1.9c0,0.1,0,0.2-0.1,0.3c-0.7,4-0.7,3.9-4.8,4.2
		c-2.2,0.2-4.4-0.3-6.5-0.5c-0.5,0-0.9-0.2-1.2,0.4c-2.2,4.8-4.8,9.4-6.4,14.4c-0.8,2.6-1.4,5.2-2.2,7.8c-0.3,1.1-0.7,2.2-1.2,3.3
		c-0.8,2.1-2.3,3.6-4.3,4.6c-0.3,0.2-0.7,0.6-0.7,0.9c-0.5,5.7-1,11.4-1.5,17.1c-0.1,1,0.1,2,0.2,3c0.2,1.2,0.6,2.2,1.8,2.9
		c1.4,0.8,2.1,2.2,2.3,3.7c0.2,1.2-0.3,1.6-1.6,1.5c-1-0.1-2.1,0-3.1,0c-1.1,0.1-1.6-0.3-1.5-1.3c0.1-0.8,0.2-1.6,0.4-2.4
		c0.1-0.7,0.1-1.1-0.8-1.1c-0.3,0-0.7-0.4-0.8-0.7c-0.5-2.3-0.9-4.6-1.3-6.9c-0.2-0.9-0.3-1.7-0.5-2.6c-0.2,1.9-0.4,3.8-0.7,5.7
		c0,0.2,0,0.4,0,0.6c-0.4,1.8-0.2,3.3,1.7,4.3c1,0.5,1.5,1.6,1.6,2.9c0.1,1.2-0.2,1.6-1.4,1.6c-1.1,0-2.2,0.1-3.3,0.1
		c-0.7,0-1.2-0.3-1.2-1.1c0-0.9,0-1.9,0-2.9c-1,0.2-1.4-0.1-1.4-0.9c0-2.4,0.1-4.8-0.2-7.2c-0.6-5.5-1.4-11-2.2-16.4
		c0-0.2-0.1-0.4-0.1-0.4c-3.8,0.3-7.5,0.7-11.1,0.9c-4.3,0.2-8.5-0.6-12.7-1.4c-1.8-0.3-3.8,0.2-5.7,0.4c-0.2,0-0.4,0.3-0.6,0.5
		c-1.2,1.6-2.7,2.9-4.4,4c-0.3,0.2-0.6,0.7-0.8,1.1c-0.3,0.5-0.4,1.1-0.7,1.5c-0.4,0.3-1,0.6-1.5,0.5c-0.4-0.1-0.9-0.6-1-1.1
		c-0.2-0.8-0.7-0.7-1.3-0.6c-1.1,0.1-2.3,0.2-3.6,0.4c0.1,1,0.1,2.1,0.3,3.2c0.5,3.5,1.1,7,1.6,10.5c0.1,0.7,0.3,1.4,0.4,2.1
		c0.2,1.3,0.8,2.2,2.1,2.7c1.1,0.4,2.3,3,2,4.1c0,0.2-0.3,0.4-0.5,0.4c-1.3,0-2.7,0.1-4,0c-0.3,0-0.7-0.5-0.8-0.9
		c-0.3-0.7-0.3-1.5-0.6-2.3c-0.2-0.9-0.8-1.5-1.7-1.9c-0.3-0.1-0.5-0.5-0.6-0.8c-0.5-2.9-1-5.8-1.4-8.7c-0.3-2.1-1-3.9-2.4-5.7
		c-0.1,1.2-0.4,2.4-0.4,3.6c0.1,2.8,0.3,5.6,0.5,8.5c0.1,1.5,0.3,2.8,1.9,3.6c1.6,0.8,1.9,2.5,1.9,4.1c0,0.3-0.6,0.8-0.9,0.8
		c-1.6,0.1-3.2,0-4.9,0c0-0.9,0.1-1.5,0-2.1c-0.1-0.7-0.1-1.5-0.5-1.9c-1.3-1.1-0.9-2.5-0.8-3.8c0.2-4.3-0.3-8.6-1.7-12.6
		c-0.6-1.8-0.1-3.2,0.1-4.8c0.3-2.3,0.8-4.7,0.9-7c0.1-1.4-0.6-2.9-0.8-4.3c-0.2-2.2-0.2-4.4-0.1-6.5c0-0.8-0.1-1.4-0.4-2.1
		c-1.9-3.3-2.4-6.8-2.1-10.5c0.2-2,0.3-4,0.5-5.9c0-0.3,0-0.7,0-1.3c-0.5,0.3-1,0.5-1.3,0.8c-1.8,1.5-2.8,3.5-2.9,5.8
		c-0.3,4.9-1.8,9.4-4.1,13.6c-1.4,2.7-2.7,5.4-4.3,8c-1.1,1.7-2.6,3.2-4,4.7c0.1-0.4,0.1-0.8,0.2-1.4c-1.1,1.9-2.1,3.7-3.9,4.9
		c-0.1-0.3-0.2-0.5-0.3-0.7c-0.6,0.5-1.1,0.9-1.6,1.3c0,0,0-0.1-0.1-0.1c1.5-2.1,3-4.2,4.6-6.5c-0.4,0.1-0.7,0.2-1.1,0.3
		c0.2-0.3,0.4-0.4,0.5-0.5c3.4-2.3,5.7-5.6,7.4-9.3c1.5-3.1,2.9-6.2,4-9.5c0.6-1.9,0.3-4,0.7-6c0.3-1.8,0.8-3.7,1.5-5.4
		c1.7-3.9,5.1-5.2,9-5.2c4.1,0,8.2,0.3,12.3,0.5c8.5,0.4,16.9,0.7,25.4,1.2c7.8,0.4,15.5,0.4,23.3,0.2c2.7-0.1,5-1.3,6.9-3.3
		C349.6,11.6,350.5,10.2,351.7,8.8z"/>
	<path class="st0" d="M192.5,80.8c-1.3,0.6-2.6,0.8-4,0.6c-1.4-0.2-2.3-1.1-2.9-2.3c-1.4-2.8-2.1-5.9-2.4-9
		c-0.1-0.7-0.1-1.4-0.2-2.3c-2,2.6-3.3,5.2-3.2,8.3c0,1.7,0.8,3,2.2,4c-0.6,1.5-1.2,1.8-2.8,1.7c-1.3-0.1-2.2-0.8-2.4-2.2
		c-0.5-2.5-0.1-5,0.3-7.4c0.1-0.6,0.2-1.2,0.3-1.8c0.3-1.9,0.7-3.7,2.3-5c0.2-0.2,0.4-0.5,0.5-0.7c1.5-3.3,2.9-6.7,3.6-10.3
		c0-0.1,0-0.1-0.1-0.3c-2.2,3.4-4.4,6.8-6.6,10.3c-0.5-1.3-0.6-2.6-0.2-3.7c0.3-1.1,0.8-2.2,1.4-3.1c1.4-1.9,2.3-3.9,2.9-6.2
		c1.3-4.5,3.8-8.5,7-12c2.2-2.5,5-3.2,8.3-2.8c6.2,0.8,12.5,1.8,18.8,1.8c2.4,0,4.6-0.7,6.4-2.2c1.4-1.2,2.9-2.3,4.3-3.6
		c0.9-0.8,1.7-1.8,2.4-2.7c1.4-1.9,2.7-3.8,4-5.7c1.5-2,3-2.4,5.3-1.7c0.6,0.2,1.3,0.5,1.9,0.6c1.6,0.4,2.8,1.1,3.8,2.5
		c0.9,1.2,2.1,2.1,3.7,2.6c1.1,0.4,2.1,1.1,3.1,1.7c0,0.2,0,0.3,0,0.3c-1,3.1-3.6,3.6-6.4,3.7c-0.5,0-1,0.1-1.5,0
		c-2-0.2-3.1,0.9-4,2.5c-1.4,2.7-2.1,5.5-2.7,8.4c-0.9,4.8-2.4,9.4-3.7,14.2c-0.9,3.6-1.1,7.2-0.8,10.9c0.1,0.7,0,1.5-0.2,2.2
		c-0.2,1.6,0.4,2.7,1.6,3.6c1.1,0.8,2.1,1.8,3.2,2.8c0.1,0.1,0.2,0.3,0.3,0.4c-1.9,1.9-5.1,1.6-6.6-0.5c-0.1-0.2-0.3-0.4-0.5-0.5
		c-2.6-0.8-3.4-2.9-3.8-5.2c-0.7-4.2-1.3-8.4-1.9-12.7c-0.1-0.9-0.4-1.4-1.5-1.3c-4.9,0.3-9.4-0.8-13.3-3.7c-3.3-2.5-7-3.7-11.1-3.8
		c-0.5,0-0.9,0-0.9,0.6c-0.5,4.1-2.8,7.3-5.3,10.4c-1.3,1.6-2.5,3.3-3.6,5c-1.7,2.7-1.6,5.6-0.4,8.4c0.4,1,1.1,1.7,2.3,1.9
		C191.1,78,192,78.9,192.5,80.8z"/>
	<path class="st0" d="M83.1,77.8c-0.4,0.5-0.8,0.8-1,1.1c-0.5-0.1-0.9-0.1-1.2-0.1c-1-0.1-2.1-0.2-3.1-0.5c-0.5-0.2-1-0.8-1.3-1.3
		c-0.7-1.1-1.6-1.7-2.8-1.4c-3.6,0.9-7.2,0.3-10.9,0.1c-1.6-0.1-3.2,0-4.7-0.1c-3-0.1-6-0.3-9-0.4c-0.4,0-0.8,0-1.5-0.1
		c0.9,0.8,1.5,1.5,2.3,1.9c0.4,0.2,1,0.2,1.5,0.1c1.6-0.4,1.8-0.3,2.3,1.5c-0.4-0.2-0.7-0.2-1-0.4c-1.1-0.7-1.1-0.7-1.9,0.8
		c-1.5-0.9-3-1.7-4.4-2.8c-1.9-1.6-3.7-3.3-5.5-5c-0.8-0.8-1.7-1.4-2.9-1.6c-3-0.5-4.9-2.6-7-4.6c-2.5-2.4-3.9-5.4-5.3-8.5
		c-1.3-3.1-2.8-6.1-4.2-9.1c-1.1-2.3-2.6-4.1-5-5.1c0-0.1,0.1-0.2,0.1-0.2c0.3,0.1,0.6,0.2,0.9,0.3c2.4,1,4.1,2.7,5.3,5
		c1.6,3,3,6.1,4.5,9.2c1.9,3.9,4.3,7.4,8.1,9.8c1.1,0.7,2.5,1.1,3.8,1.6c0.3,0.1,0.9-0.2,1.1-0.5c4-6.5,10.2-8.7,17.3-9.3
		c3.6-0.3,7,0.7,10.5,1.3c2.4,0.4,4.9,0.6,7.3,1c0.7,0.1,1.5,0.2,2.1,0.3c0.4-0.9,0.9-1.8,1.3-2.8c0,0-0.2-0.1-0.4-0.2
		c-1-0.2-1.2-0.5-1-1.6c0.3-1.3,1.2-2,2.4-2.3c1.2-0.4,2.2-0.1,2.9,0.9c0.6,0.9,1.4,1.9,1.8,2.9c0.8,1.9,2,3.3,3.8,4.3
		c3.1,1.7,5.4,4.2,6.8,7.5c0.1,0.3,0.3,0.6,0.5,0.9c1,1.1,0.8,2.1-0.6,3c-1.7,1.2-3.6,1.5-5.5,0.8c-3.1-1.1-6.1-0.3-9.1,0.4
		c-0.4,0.1-0.8,0.2-1,0.5c-0.3,0.4-0.7,1-0.7,1.4c0,0.4,0.5,0.9,0.9,1C80.8,77.4,81.8,77.5,83.1,77.8z"/>
	<path class="st0" d="M154,78.8c-1.2-0.2-2.4-0.4-3.8-0.6c0.2,0.4,0.4,0.7,0.7,1.3c-2.6-0.7-5-1.3-7.4-1.9c0-0.1,0-0.2,0-0.3
		c0.5,0,1,0,1.4-0.1c0.7-0.1,0.9-0.5,0.6-1.1c-1-1.7-2-3.4-3.2-5c-0.5-0.6-1.3-1-2.1-1.2c-1.7-0.4-3.4-0.6-5.2-0.9
		c0.2,1.4,0.3,2.9,0.6,4.3c0.2,1.4,0.5,2.8,0.9,4.1c0.2,0.8,0.9,1.2,1.8,1.3c1.1,0.1,2.1,0.4,3.1,0.8c-0.7,0-1.5,0-2.2,0
		c0.1,0.3,0.2,0.6,0.3,1.1c-2.6-1.2-4.8-3.3-7.8-1.4c0-0.2,0-0.3,0-0.5c0.7-0.2,1.3-0.5,2-0.7c0.9-0.2,1.3-0.6,1.1-1.6
		c-0.4-2.3-0.7-4.7-1.1-7.1c-0.1-0.8-0.6-0.8-1.2-0.6c-3.9,1.4-7.8,2.8-11.7,4.2c-2.8,1-5.6,1.5-8.5,1.1c-0.2,0-0.5-0.1-0.7-0.1
		c-0.1,0-0.2-0.1-0.2-0.1c2.9-1.2,5.8-2.3,8.7-3.5c-3.9,0.1-7.7,1.1-11.5,0.3c6.1-2,12.3-4,18.4-5.9c0-0.1,0-0.2,0-0.2
		c-1.6-0.3-3.2-0.5-4.9-0.8c0.2-0.2,0.3-0.3,0.5-0.4c-2.2-0.5-4.1-1.5-5.6-3.5c2.6,0,5,0,7.4,0c0-0.1,0-0.2,0-0.2
		c-3.3,0-6.6-0.4-9.9-1.7c0.3-0.1,0.4-0.1,0.5-0.1c4.7,0.3,9-0.8,13.2-2.8c5.1-2.4,10.1-4.9,15.2-7.3c0.9-0.4,1.1-1.3,1.5-2.1
		c0.5-1.1,1-2.4,1.8-3.3c2.9-3.2,7.9-2.6,10,1.1c0.4,0.8,1,1.2,1.9,1.3c0.5,0,0.9,0.1,1.4,0.2c0.5,0.1,0.9,0.2,1.6,0.4
		c-0.5,0.2-0.8,0.3-1.2,0.5c0.5,0,0.8,0,1.1,0.1c0,0.1,0.1,0.1,0.1,0.2c-0.7,0.3-1.3,0.7-2,1c-0.8,0.4-1.5,0.8-2.3,1
		c-1.5,0.4-1.8,1.4-2,2.8c-0.3,2.6-0.7,5.2-1.2,7.8c-1,4.4-3.6,7.8-7.5,10.1c-1,0.6-2,1.2-3.2,1.8c0.3,0.5,0.5,0.9,0.8,1.4
		c0.8,1.4,1.7,2.8,2.5,4.2c0.4,0.8,1,1.2,1.9,1.2c1.4,0.1,2.8,0.2,4.2,0.4c0.5,0.1,1,0.5,1.4,0.8C154.2,78.5,154.1,78.7,154,78.8z"
		/>
	<path class="st0" d="M234.1,172.5c2.3,0,4.4,0,6.5,0c0.2,0.8,0.4,1.7,0.6,2.4c0.9,2.7,3.5,4,6.1,2.9c0.8-0.3,1.5-1,2-1.7
		c1.2-2.1,0.7-5.1-1.1-6.7c-1.4-1.2-3.2-2-4.7-3c-1.7-1.1-3.6-2-5.2-3.3c-3.5-3-3.8-6.9-2.7-11c1.1-4,4-5.9,8-6.4
		c1.6-0.2,3.3-0.2,4.8,0.1c4.4,0.8,7,3.9,7.4,8.4c0,0.5,0.1,1.1,0.1,1.7c-2.1,0-4,0-6,0c-0.2,0-0.4-0.3-0.5-0.5
		c-0.2-0.5-0.2-1.1-0.3-1.6c-0.7-2.2-2.2-3.3-4.2-3c-2.1,0.4-3.2,1.9-3.1,4.2c0.1,1.5,0.6,2.8,1.9,3.6c1.3,0.8,2.6,1.5,4,2.2
		c1.4,0.8,2.9,1.5,4.3,2.4c2.7,1.8,4.4,4.2,4.7,7.4c0.3,2.2,0.2,4.4-0.6,6.5c-1.6,3.9-4.8,5.7-8.8,6.1c-1.7,0.1-3.5,0.1-5.2-0.3
		c-4.3-0.9-6.6-3.7-7.5-7.9C234.2,174.3,234.2,173.4,234.1,172.5z"/>
	<path class="st0" d="M33.1,182.7c-2.5,0-4.8,0-7.1,0c-0.3,0-0.7-0.3-0.7-0.5c-3-11.9-6-23.9-8.9-35.8c0,0,0-0.1,0-0.2
		c2.2,0,4.4,0,6.6,0c0.2,0,0.5,0.5,0.6,0.7c1.1,5,2.2,10,3.2,15c0.8,4.1,1.5,8.3,2.3,12.4c0,0.3,0.1,0.5,0.2,0.8
		c2-9.7,4.1-19.3,6.1-28.9c2.3,0,4.5,0,6.9,0C39.3,158.4,36.2,170.5,33.1,182.7z"/>
	<path class="st0" d="M402.8,46.7c-1.7,1.8-3.4,3.5-5.2,5.3c-0.3,0.3-0.7,0.5-1.1,0.4c-1.7-0.1-3.1,0.7-4.6,1.4
		c-1.7,0.9-2,0.8-3.2-0.5c-1.1-1.1-2.2-2.3-3.3-3.4c-1-1.1-1.1-1.5-0.4-2.9c0.5-1.1,1.3-2.1,1.4-3.2c0.1-2.1,1.4-3.4,2.7-4.7
		c4.9-4.7,9.7-9.5,14.5-14.3c1.4-1.3,2.8-2.2,4.8-1.4c0.4,0.2,1.1-0.2,1.5-0.5c0.6-0.4,1-1,1.5-1.5c0.9-0.8,1.8-0.8,2.6,0
		c1.4,1.3,2.7,2.7,4,4c0.8,0.8,0.8,1.4,0,2.2c-0.5,0.6-1.1,1.1-1.7,1.6c-0.6,0.6-1,1.3-0.6,2.1c0.6,1.4,0,2.4-0.7,3.5
		c-0.6,0.7-1.3,1.4-2,2.1c-1.8-1.8-3.7-3.1-6.3-2.8c-1.8,0.2-3.4,0.9-4.6,2.3C399.9,38.9,399.2,42.6,402.8,46.7z M392.5,51
		c-1.5-1.6-2.9-3.1-4.4-4.6c-1.3,1.5-1.3,1.9,0,3.2c0.6,0.6,1.2,1.3,1.8,1.9c0.4,0.5,0.9,0.6,1.4,0.2
		C391.7,51.4,392.1,51.3,392.5,51z M415.8,26.9c-1.1-1.1-2.2-2.2-3.3-3.3c-0.5,0.6-1.1,1.3-1.7,1.9c1.1,1.1,2.1,2.1,3.1,3.1
		C414.5,28,415.1,27.5,415.8,26.9z"/>
	<path class="st0" d="M202.7,193.2c0-2.1,0-3.8,0-5.6c0.8,0,1.6,0,2.3,0c1.3,0,2.3-0.6,2.8-1.8c0.6-1.4,1-2.7,0.5-4.3
		c-2.7-8.8-5.2-17.5-7.8-26.3c0-0.2-0.1-0.3-0.2-0.6c1.9,0,3.8,0,5.6,0c1.6,0,1.6,0,1.9,1.5c1.3,5.6,2.5,11.2,3.8,16.8
		c0.1,0.4,0.1,0.7,0.2,1.3c0.5-2.6,1-4.9,1.5-7.2c0.9-3.9,1.8-7.7,2.7-11.6c0.1-0.6,0.3-0.8,1-0.8c1.9,0.1,3.7,0,5.6,0
		c0,0.3,0,0.5,0,0.7c-2.8,10.1-5.5,20.1-8.4,30.1c-0.4,1.5-1.2,3-2,4.4c-1.2,2.2-3.2,3.3-5.8,3.3C205.2,193.3,204,193.2,202.7,193.2
		z"/>
	<path class="st0" d="M172.2,165.7c0-1.4,0-2.6,0-3.8c-0.1-1.7-1-2.6-2.5-2.7c-1.9-0.1-3,0.6-3.3,2.3c-0.1,0.4-0.1,0.8-0.2,1.2
		c-2.1,0-4.1,0-6.1,0c-0.3-3.9,2.1-7.2,5.8-8.1c2.4-0.6,4.7-0.6,7.1,0c3.6,0.9,5.6,3.3,5.7,7c0.1,4.8,0,9.5,0,14.3
		c0,2.2,0,4.4,0,6.8c-1.8,0-3.7,0-5.7,0c-0.1-0.6-0.2-1.3-0.3-2.1c-2,2.4-4.5,3-7.3,2.7c-3.1-0.3-5.1-2.1-5.9-5
		c-1.1-3.7-0.7-7.2,2.3-9.9c1.9-1.7,4.2-2.3,6.7-2.5C169.6,165.7,170.8,165.7,172.2,165.7z M172.5,170.3c-1.5,0.1-2.8,0.1-4,0.3
		c-2.3,0.4-3.5,2.1-3.1,4.4c0.3,1.7,1.3,2.8,2.7,2.9c2.1,0.1,3.4-0.6,3.8-2.5C172.3,173.8,172.3,172.2,172.5,170.3z"/>
	<path class="st0" d="M319.9,154.7c2.1,0,4.1,0,6.1,0c0.1,0.8,0.2,1.6,0.3,2.3c0.1,0,0.2,0,0.2,0c2.1-2.8,5-3.3,8.1-2.6
		c2.6,0.6,4.4,2.9,4.8,6c0.1,0.9,0.2,1.8,0.2,2.7c0,6.1,0,12.2,0,18.3c0,0.4,0,0.8,0,1.2c-2.2,0-4.3,0-6.6,0c0-0.4,0-0.8,0-1.2
		c0-6.1,0-12.2-0.1-18.2c0-2.5-1.1-3.5-3.6-3.4c-1.6,0.1-2.6,1.2-2.9,3.1c-0.1,0.7-0.2,1.5-0.2,2.2c0,5.4,0,10.8,0,16.2
		c0,0.4,0,0.8,0,1.3c-2.2,0-4.3,0-6.5,0C319.9,173.4,319.9,164.1,319.9,154.7z"/>
	<path class="st0" d="M155.1,182.7c-2.3,0-4.3,0-6.6,0c0-0.4,0-0.8,0-1.2c0-6,0-12.1,0-18.1c0-0.4-0.1-0.9-0.2-1.3
		c-0.3-1.4-1-2-2.2-2.2c-1.8-0.2-3.1,0.2-3.6,1.6c-0.4,1.1-0.7,2.4-0.7,3.6c-0.1,5.5,0,10.9,0,16.4c0,0.4,0,0.8,0,1.2
		c-2.2,0-4.3,0-6.5,0c0-9.3,0-18.6,0-27.9c2,0,4.1,0,6.2,0c0.1,0.8,0.2,1.6,0.3,2.5c1.5-2.2,3.6-3.1,6-3.1c4,0,6.6,2.3,7.1,6.3
		c0.1,0.9,0.2,1.9,0.2,2.8c0,6,0,12.1,0,18.1C155.1,181.8,155.1,182.2,155.1,182.7z"/>
	<path class="st0" d="M309.1,174.3c2.1,0,4.1,0,6.1,0c0.1,4.3-3.2,8.3-7.5,8.8c-1.7,0.2-3.5,0.2-5.2-0.1c-3.1-0.5-5.3-2.5-6.3-5.5
		c-1.8-5.7-2-11.4,0-17.1c2.4-6.6,11.6-8.5,16.3-3.5c0.8,0.9,1.4,2,1.9,3.1c1.1,2.5,1.5,7.5,1,10.4c-4.6,0-9.2,0-13.9,0
		c-0.1,2.2,0,4.2,1.1,6c0.7,1.2,2,1.6,3.3,1.4c1.3-0.2,2.3-0.8,2.8-2.1C308.9,175.3,309,174.8,309.1,174.3z M309.3,165.7
		c-0.3-1.4-0.4-2.7-0.8-4c-0.3-1.1-1.2-1.9-2.4-2c-1.3-0.2-2.6,0-3.4,1.2c-1,1.4-1.2,3.1-1.2,4.8
		C304.1,165.7,306.6,165.7,309.3,165.7z"/>
	<path class="st0" d="M87.3,170.4c0.2,1.7,0.3,3.2,0.7,4.7c0.5,2,1.9,2.9,3.8,2.8c1.8-0.1,2.8-1.1,3.3-3.1c0-0.1,0.1-0.3,0.1-0.4
		c2,0,4.1,0,6.1,0c-0.1,5-4,8.8-9.3,9c-1.2,0-2.4-0.1-3.5-0.3c-3.1-0.6-5.3-2.5-6.3-5.5c-1.8-5.7-2-11.4,0.1-17.1
		c2.2-6,9.7-8.2,15-4.7c1.4,0.9,2.4,2.3,3,3.8c1.4,3.5,1.4,7.1,1.2,10.8C96.8,170.4,92.2,170.4,87.3,170.4z M95.3,165.7
		c-0.3-1.4-0.3-2.8-0.8-4c-0.8-2.3-4.1-2.9-5.6-1c-1.2,1.4-1.3,3.2-1.3,5C90.1,165.7,92.6,165.7,95.3,165.7z"/>
	<path class="st0" d="M62.6,170.4c-4.7,0-9.3,0-14,0c-0.1,2.2-0.1,4.2,1.1,6.1c0.8,1.2,2.1,1.6,3.5,1.3c1.5-0.2,2.5-1.2,2.8-2.7
		c0.2-0.8,0.5-1,1.2-0.9c1.7,0,3.4,0,5.1,0c0.2,4.3-3.3,8.3-7.6,8.9c-1.7,0.2-3.5,0.2-5.1-0.1c-3.1-0.5-5.3-2.5-6.3-5.5
		c-1.9-5.7-2-11.4,0-17.1c2.4-6.6,11.6-8.5,16.3-3.5c0.8,0.9,1.5,2,1.9,3.2C62.8,163.4,62.8,166.8,62.6,170.4z M56.4,165.7
		c-0.3-1.4-0.3-2.8-0.8-4c-0.8-2.3-4.1-2.9-5.6-1c-1.2,1.4-1.3,3.2-1.3,5C51.2,165.7,53.7,165.7,56.4,165.7z"/>
	<path class="st0" d="M408.3,174.2c2,0,3.8,0,5.7,0c0.2,0,0.4,0,0.6,0.1c0.4,2.5,1.2,3.5,2.9,3.9c1.5,0.3,2.9-0.2,3.5-1.4
		c0.7-1.3,0.4-3.2-0.8-4.1c-0.9-0.7-1.9-1.1-2.9-1.6c-1.6-0.8-3.3-1.4-4.8-2.3c-3.3-1.9-4.1-4.8-3.4-8.4c0.6-3.2,3-5.4,6.3-6
		c2.3-0.4,4.5-0.4,6.7,0.4c3.2,1.2,5.2,4.2,5.1,8c-2,0-4.1,0-6.2,0c-0.1-0.4-0.1-0.9-0.2-1.3c-0.3-1.5-1.3-2.3-2.9-2.3
		c-1.3,0-2.1,0.5-2.4,1.6c-0.4,1.2-0.2,2.4,0.8,3.1c0.9,0.6,1.9,1,2.9,1.5c1.5,0.7,3.1,1.2,4.5,2c3.6,2,4.9,5.2,4,9.5
		c-0.7,3.4-3.5,5.8-7.3,6.3c-2.7,0.3-5.3,0.2-7.7-1C409.8,180.7,408.1,177.6,408.3,174.2z"/>
	<path class="st0" d="M389.5,162.9c-2,0-4,0-6.1,0c-0.1-0.5-0.2-1-0.3-1.5c-0.3-1.4-1.3-2.1-2.7-2.1c-1.4,0-2.3,0.5-2.6,1.7
		c-0.4,1.3,0,2.5,1.2,3.2c0.9,0.6,2,0.9,3,1.4c1.9,1,3.9,1.8,5.6,3c4,2.8,3.7,11.9-2.5,14c-3,1-6,1.1-8.9,0.1
		c-3.5-1.2-5.7-4.5-5.5-8.3c2.1,0,4.2,0,6.3,0c0.1,0.5,0.2,1,0.3,1.5c0.7,2.2,3,3.1,5.1,2.1c1.7-0.9,2-3.7,0.3-5.1
		c-0.8-0.7-1.9-1.1-2.9-1.6c-1.6-0.8-3.3-1.4-4.8-2.3c-3.2-1.9-4.1-4.7-3.5-8.4c0.5-3.1,3-5.4,6.3-6.1c2.5-0.5,4.9-0.4,7.3,0.6
		C387.9,156.3,389.8,159.7,389.5,162.9z"/>
	<path class="st0" d="M22.6,91.8c1.2,0,2.4,0,3.6,0c0.3,0,0.6,0.5,0.7,0.8c2.5,6.2,5.1,12.4,7.6,18.6c1.6,4,3.3,8,5,12.3
		c-0.1-5.4-0.2-10.7-0.3-15.9c0-5.2,0-10.4,0-15.7c1.1,0,2,0,3.1,0c0,12.2,0,24.4,0,36.8c-1.2,0-2.3,0-3.5,0c-0.3,0-0.6-0.5-0.7-0.8
		c-2.8-7-5.6-13.9-8.4-20.9c-1.3-3.3-2.6-6.6-3.9-9.9c-0.1-0.2-0.2-0.3-0.3-0.6c0,10.8,0,21.4,0,32.1c-0.9,0-1.8,0-2.9,0
		C22.6,116.4,22.6,104.1,22.6,91.8z"/>
	<path class="st0" d="M279.8,163.8c-2.1,0-4.2,0-6.4,0c-0.1-0.7-0.2-1.4-0.4-2.1c-0.4-1.3-1.2-2-2.3-2.1c-1.4-0.1-2.4,0.4-3,1.6
		c-0.9,1.7-1.1,3.5-1.1,5.3c0.1,2.7,0.3,5.4,0.5,8c0,0.5,0.3,1.1,0.6,1.6c0.5,1.1,1.5,1.7,2.8,1.7c1.3-0.1,2.2-0.7,2.6-1.9
		c0.3-0.8,0.4-1.7,0.7-2.6c2,0,4,0,6.1,0c0.3,3.9-1.8,8.1-5.8,9.4c-2.1,0.7-4.2,0.8-6.4,0.4c-3.4-0.7-5.6-2.8-6.5-6.1
		c-1.6-5.4-1.7-10.8,0-16.1c1.9-6,8.8-8.6,14.4-5.6C278.4,156.8,280.3,160.6,279.8,163.8z"/>
	<path class="st0" d="M395,147.7c2.3,0,4.3,0,6.5,0c0,2.3,0,4.5,0,6.9c1.3,0,2.4,0,3.5,0c0.7,0,0.9,0.2,0.9,0.9c0,1.5,0,3,0,4.5
		c-1.5,0-2.8,0-4.3,0c0,0.5,0,0.8,0,1.2c0,4.6,0,9.2,0,13.8c0,2.5,0.6,3,3.1,2.9c0.2,0,0.5,0,0.9-0.1c0,1.5,0,3,0,4.5
		c0,0.2-0.4,0.4-0.6,0.4c-2.3,0.6-4.6,0.7-6.8-0.1c-2.4-0.9-3-3-3-5.2c-0.1-5.3,0-10.7,0-16c0-0.4,0-0.8,0-1.3c-1.2,0-2.4,0-3.7,0
		c0-1.8,0-3.6,0-5.4c1.2,0,2.4,0,3.6,0C395,152.3,395,150.1,395,147.7z"/>
	<path class="st0" d="M356.5,177.8c0,1.5,0,2.9,0,4.4c0,0.2-0.3,0.5-0.6,0.5c-2.3,0.6-4.6,0.7-6.9-0.1c-2.4-0.9-2.9-3-3-5.3
		c-0.1-5.4,0-10.7,0-16.1c0-0.4,0-0.7,0-1.2c-1.2,0-2.4,0-3.6,0c0-1.8,0-3.6,0-5.4c1.2,0,2.3,0,3.6,0c0-2.3,0-4.6,0-6.9
		c2.2,0,4.4,0,6.6,0c0,2.3,0,4.5,0,6.9c1.2,0,2.3,0,3.4,0c0.6,0,0.9,0.1,0.9,0.8c0,1.5,0,3,0,4.5c-1.4,0-2.8,0-4.3,0
		c0,0.5,0,0.8,0,1.2c0,4.6,0,9.2,0,13.8c0,2.6,0.6,3.1,3.1,2.9C355.9,177.8,356.1,177.8,356.5,177.8z"/>
	<path class="st0" d="M68,147.7c2.3,0,4.3,0,6.5,0c0,2.3,0,4.5,0,6.9c1.2,0,2.3,0,3.4,0c0.7,0,1,0.2,0.9,0.9c-0.1,1.5,0,3,0,4.5
		c-1.5,0-2.9,0-4.3,0c0,0.5,0,0.8,0,1.2c0,4.6,0,9.1,0,13.7c0,2.6,0.6,3.1,3.2,3c0.2,0,0.4,0,0.7-0.1c0,1.5,0,3,0,4.5
		c0,0.2-0.3,0.4-0.5,0.5c-2.3,0.6-4.7,0.7-7-0.1c-2.3-0.9-2.9-3-2.9-5.2c-0.1-5.4,0-10.7,0-16.1c0-0.4,0-0.7,0-1.2
		c-1.2,0-2.4,0-3.6,0c0-1.8,0-3.6,0-5.4c1.2,0,2.3,0,3.6,0C68,152.3,68,150.1,68,147.7z"/>
	<path class="st0" d="M394.5,75c0-1.3,0-2.6,0-3.8c0.1-2.6,1.9-4.1,4.3-3.5c1.3,0.3,2.2,1.5,2.2,3.1c0,1.3,0,2.7,0,4.1
		c0.4,0,0.8,0.1,1.1,0.1c2.4,0.1,4.7,0,7.1,0.2c3.1,0.2,5.6,2.9,5.7,5.9c0,1.1-0.3,1.5-1.4,1.5c-6.1,0-12.1-0.1-18.2-0.1
		c-4.3,0-8.6,0-12.9-0.1c-1.9,0-2.4-0.6-1.9-2.4c0.6-2.9,3.2-5,6.3-5.1C389.3,75,391.8,75,394.5,75z"/>
	<path class="st0" d="M200.3,128.6c-1.2,0-2.3,0-3.4,0c-1-4.1-2-8.3-3-12.5c-3.3,0-6.6,0-9.9,0c-1,4.2-2,8.3-3,12.5
		c-1.1,0-2.1,0-3.2,0c0.6-2.7,1.3-5.3,1.9-7.9c2.3-9.3,4.6-18.6,6.8-27.8c0.2-0.8,0.4-1.2,1.4-1.1c1,0.1,2.2-0.3,2.8,0.2
		c0.6,0.5,0.6,1.7,0.9,2.7C194.5,105.9,197.4,117.2,200.3,128.6z M193.1,113.2c-1.4-5.9-2.8-11.8-4.3-17.9c-1.4,6.1-2.7,12-4.1,17.9
		C187.5,113.2,190.3,113.2,193.1,113.2z"/>
	<path class="st0" d="M190.8,182.7c-2.2,0-4.3,0-6.4,0c0-9.3,0-18.6,0-28c1.9,0,3.8,0,5.7,0c0.2,0,0.5,0.5,0.5,0.7
		c0.1,1,0,2,0.1,3.1c1.5-2.9,4-4.3,7.3-4.3c0,2.4,0,4.8,0,7.2c-1,0.1-2.1,0.2-3.1,0.4c-2.3,0.5-3.6,1.9-3.9,4.3
		c-0.1,1.3-0.2,2.7-0.2,4C190.8,174.3,190.8,178.4,190.8,182.7z"/>
	<path class="st0" d="M105.9,154.6c1.9,0,3.8,0,5.7,0c0.2,0,0.5,0.5,0.5,0.7c0.1,1,0,2,0.1,3.1c1.5-2.9,4-4.3,7.3-4.3
		c0,2.4,0,4.8,0,7.2c-1,0.1-2.1,0.2-3.1,0.4c-2.3,0.5-3.6,2-3.9,4.3c-0.1,1.4-0.2,2.8-0.2,4.2c0,4,0,8,0,12c0,0.1,0,0.1-0.1,0.3
		c-2.1,0-4.2,0-6.4,0C105.9,173.3,105.9,164.1,105.9,154.6z"/>
	<path class="st0" d="M64.4,128.6c-0.8,0-1.7,0-2.7,0c-0.1-0.8-0.2-1.7-0.3-2.5c-0.1,0-0.2,0-0.3,0.1c-1.6,3-6,3.6-8.9,2.6
		c-2.7-1-3.9-3.1-4.3-5.8c-0.9-6.5,3.2-10.1,9.6-10.3c1.2,0,2.4,0,3.8,0c0-2.2,0.3-4.4-0.4-6.6c-0.4-1.1-1.2-1.9-2.3-2.2
		c-3.4-0.8-6.1,0.3-6.5,3.9c0,0.3-0.1,0.6-0.1,1c-0.9,0-1.9,0-2.8,0c-0.6-2.5,1.2-5.9,3.8-7c2.6-1.1,5.2-1.1,7.8-0.1
		c2.7,1,3.6,3.3,3.6,6c0.1,5.3,0,10.7,0,16C64.4,125.2,64.4,126.9,64.4,128.6z M61.6,117.9c-0.1,0-0.1,0-0.2,0c0-0.5,0-1,0-1.5
		c0.1-0.8-0.2-1.1-1-1c-1.5,0.1-3,0-4.4,0.2c-2.8,0.4-4.5,2.1-5,4.7c-0.5,2.9,1.1,5.5,3.7,6.1c2.7,0.5,5.1-0.8,5.9-3.5
		C61.1,121.2,61.3,119.5,61.6,117.9z"/>
	<path class="st0" d="M150.6,112.6c-0.1-1.9-0.1-3.9-0.4-5.9c-0.3-1.8-1.7-2.8-3.5-3c-0.5,0-1,0-1.5,0c-2.1,0.1-3.5,1.3-3.9,3.4
		c-0.1,0.5-0.2,1-0.3,1.6c-0.9,0-1.9,0-2.9,0c-0.5-3.4,1.8-6.6,5.2-7.5c1.9-0.5,3.9-0.4,5.8,0.1c2.7,0.8,4.2,3.1,4.2,6.3
		c0,5.4,0,10.7,0,16.1c0,1.6,0.1,3.2,0.2,4.8c-0.9,0-1.8,0-2.9,0c-0.1-0.8-0.2-1.7-0.3-2.8c-1.1,1.7-2.4,2.7-4.1,3.1
		c-6.1,1.3-9.7-2.4-9.4-8.3c0.2-4.3,3.3-7.2,7.8-7.7C146.7,112.7,148.5,112.7,150.6,112.6z M150.7,118c-0.1,0-0.1,0-0.2,0
		c0-0.5,0-1.1,0-1.6c0.1-0.7-0.2-1.1-0.9-1c-1.5,0.1-3,0-4.5,0.2c-2.8,0.5-4.4,2.1-4.9,4.7c-0.5,3,1.1,5.6,3.8,6.1
		c2.6,0.5,5-0.9,5.8-3.5C150.3,121.3,150.4,119.6,150.7,118z"/>
	<path class="st0" d="M312.2,128.6c-0.8,0-1.6,0-2.7,0c-0.1-0.9-0.2-1.7-0.3-2.8c-1,1.7-2.4,2.7-4.1,3.1c-6.1,1.3-9.7-2.4-9.4-8.3
		c0.2-4.3,3.3-7.2,7.8-7.7c1.8-0.2,3.7-0.2,5.7-0.3c-0.1-1.9-0.1-3.9-0.4-5.9c-0.3-1.8-1.7-2.9-3.5-3c-0.5,0-1,0-1.5,0
		c-2.1,0.1-3.5,1.3-3.9,3.4c-0.1,0.5-0.2,1-0.3,1.6c-0.9,0-1.9,0-2.9,0c-0.5-3.4,1.8-6.6,5.2-7.5c1.9-0.5,3.9-0.4,5.8,0.1
		c2.7,0.8,4.2,3.1,4.3,6.3c0,5.3,0,10.7,0,16C312.2,125.3,312.2,126.9,312.2,128.6z M309.4,117.9c-0.1,0-0.1,0-0.2,0
		c0-0.5,0-1.1,0-1.6c0.1-0.6-0.2-1-0.8-0.9c-1.6,0.1-3.2,0-4.7,0.2c-2.8,0.5-4.3,2.1-4.8,4.7c-0.5,2.9,1.1,5.5,3.7,6.1
		c2.7,0.6,5.1-0.8,5.9-3.5C308.9,121.3,309.1,119.6,309.4,117.9z"/>
	<path class="st0" d="M110.4,114.9c-0.1,3-0.4,5.9-1.4,8.7c-1.8,4.6-5.7,6.7-10.4,5.3c-2.5-0.7-4-2.5-5-4.8
		c-1.3-3.3-1.5-6.7-1.4-10.1c0-2.7,0.4-5.4,1.5-7.9c2.1-4.8,7.9-6.7,12.2-3.9c2.5,1.6,3.5,4.1,4,6.9
		C110.1,111,110.2,112.9,110.4,114.9z M107.2,114.9c-0.1,0-0.2,0-0.3,0c0-0.5,0-1,0-1.5c-0.1-2.4-0.3-4.8-1.5-6.9
		c-0.9-1.7-2.3-2.7-4.3-2.7c-2,0-3.5,0.9-4.4,2.7c-0.3,0.7-0.6,1.4-0.8,2.2c-0.8,3.2-0.8,6.4-0.5,9.6c0.2,2,0.6,4,1.6,5.8
		c1.3,2.1,3.5,2.9,5.8,2.1c1.8-0.7,2.8-2.2,3.2-3.9C106.6,119.8,106.9,117.3,107.2,114.9z"/>
	<path class="st0" d="M261.4,114.7c0,3.1-0.2,6-1.3,8.9c-1.7,4.6-5.7,6.6-10.3,5.3c-2.5-0.7-4.1-2.4-5-4.7
		c-1.4-3.3-1.5-6.7-1.5-10.2c0-2.7,0.4-5.4,1.5-7.9c2.1-4.8,7.8-6.6,12.1-3.9c1.8,1.1,2.8,2.8,3.5,4.7
		C261.2,109.4,261.4,112.1,261.4,114.7z M258.4,114.9c-0.1,0-0.2,0-0.3,0c0-0.5,0-1,0-1.5c-0.1-2.4-0.3-4.8-1.5-6.9
		c-0.9-1.7-2.3-2.7-4.3-2.7c-2,0-3.5,0.9-4.4,2.7c-0.3,0.7-0.6,1.4-0.8,2.2c-0.8,3.2-0.8,6.4-0.5,9.6c0.2,2,0.6,4,1.6,5.8
		c1.3,2.1,3.5,2.9,5.8,2.1c1.8-0.7,2.8-2.2,3.2-3.9C257.8,119.8,258,117.3,258.4,114.9z"/>
	<path class="st0" d="M358.2,114.7c-0.1,2.9-0.4,5.7-1.3,8.4c-1.7,4.9-5.7,7.1-10.6,5.7c-2.5-0.7-4-2.4-5-4.8
		c-1.3-3.2-1.5-6.7-1.4-10.1c0-2.7,0.4-5.4,1.5-7.9c2.1-4.8,7.9-6.7,12.2-3.9c2.5,1.6,3.5,4.1,4,6.9
		C357.9,110.9,358,112.8,358.2,114.7z M355.1,114.9c-0.1,0-0.2,0-0.3,0c0-0.5,0-0.9,0-1.4c-0.1-2.4-0.3-4.8-1.5-7
		c-0.9-1.7-2.4-2.7-4.3-2.7c-2,0-3.4,0.9-4.3,2.7c-0.4,0.7-0.7,1.5-0.9,2.2c-0.8,3.2-0.8,6.4-0.5,9.6c0.2,2.1,0.6,4.1,1.7,5.9
		c2,3.1,6,3.1,8,0c0.4-0.6,0.8-1.4,1-2.1C354.4,119.7,354.7,117.3,355.1,114.9z"/>
	<path class="st0" d="M413.6,114.8c-0.1,3-0.3,5.9-1.4,8.7c-1.7,4.6-5.7,6.6-10.3,5.3c-2.5-0.7-4.1-2.4-5-4.7
		c-1.4-3.2-1.5-6.7-1.5-10.1c0-2.7,0.4-5.4,1.5-8c2.1-4.8,7.8-6.6,12.1-3.9c1.8,1.1,2.8,2.8,3.4,4.7c0.3,1,0.6,2,0.8,3
		C413.4,111.5,413.5,113.1,413.6,114.8z M410.6,115c-0.1,0-0.2,0-0.3,0c0-0.5,0-1.1,0-1.6c-0.1-2.6-0.3-5.3-1.9-7.5
		c-2-2.8-6.1-2.8-7.9,0.1c-0.5,0.8-0.9,1.8-1.2,2.8c-0.8,3.1-0.8,6.3-0.5,9.5c0.2,2.1,0.6,4.1,1.7,5.9c1.9,3.1,6.1,3.2,8,0.1
		c0.4-0.6,0.8-1.4,0.9-2.1C409.9,119.7,410.2,117.3,410.6,115z"/>
	<path class="st0" d="M409.5,48.3c1.6-1.5,3.1-2.9,4.7-4.5c4,4.7,4.9,10,3.8,15.7c-1.5,7.4-7.5,13-14.7,14.1c-0.3-2-0.5-4.1-0.8-6.2
		c4.1-1.2,7.1-3.6,8.6-7.6C412.6,55.6,412,51.8,409.5,48.3z"/>
	<path class="st0" d="M132.2,128.6c-1.1,0-2,0-3.2,0c0-0.4,0-0.8,0-1.2c0-5.9,0-11.8,0-17.7c0-0.8-0.1-1.6-0.2-2.3
		c-0.5-2.2-1.6-3.3-3.7-3.6c-2.2-0.3-4.3,0.6-5.2,2.5c-1.1,2.1-1.2,4.5-1.2,6.8c0,4.8,0,9.6,0,14.4c0,0.4,0,0.7,0,1.1
		c-1.1,0-2,0-3.1,0c0-9.1,0-18.1,0-27.2c0.9,0,1.9,0,2.9,0c0.1,1,0.1,2.1,0.2,3.1c0.1,0,0.2,0,0.2-0.1c1.8-3.4,5.5-4,8.6-3.3
		c2.8,0.7,4.6,3.1,4.8,6.5c0,0.3,0,0.6,0,0.9C132.2,115.3,132.2,121.9,132.2,128.6z"/>
	<path class="st0" d="M363.4,101.4c0.9,0,1.8,0,2.9,0c0.1,1,0.1,2.1,0.2,3.3c1.1-2.1,2.7-3.3,4.8-3.7c4.8-0.9,8.4,1.6,8.6,6.5
		c0.2,7,0.1,14,0.1,21c-1,0-2,0-3.2,0c0-0.4,0-0.8,0-1.2c0-5.9,0-11.8,0-17.7c0-0.8-0.1-1.6-0.2-2.3c-0.5-2.2-1.6-3.3-3.7-3.5
		c-2.2-0.3-4.2,0.6-5.2,2.4c-1.2,2.1-1.2,4.5-1.2,6.8c0,4.8,0,9.6,0,14.4c0,0.4,0,0.7,0,1.2c-1,0-2,0-3.1,0
		C363.4,119.6,363.4,110.5,363.4,101.4z"/>
	<path class="st0" d="M394.7,60.2c-0.7,0.2-1.3,0.4-1.9,0.7c-0.7,0.3-1.5,0.6-1.9,1.1c-2.1,2.8-2.4,3-5.8,3.2c0.7,1.2,1.7,1.9,3.1,2
		c1.1,0.1,2.3,0,3.4,0c0.4,0,0.8,0.1,1.4,0.1c-0.3,2.1-0.5,4.2-0.8,6.2c-5.8,1.1-12.2-0.4-13.8-8.3c-0.6-0.1-1.3-0.1-1.9-0.2
		c-2-0.3-3.5-1.5-4.2-3.4c-0.3-0.7-0.7-1-1.4-0.9c-0.2,0-0.5,0.1-0.7,0c-0.5-0.3-0.9-0.7-1.3-1c0.4-0.4,0.9-1.1,1.3-1.1
		c4.4-0.1,8.8,0,13.3,0c2.9,0,5.9,0.1,8.8,0.1C393.3,58.7,394,59,394.7,60.2z M389.1,60.9c-5,0-9.8,0-14.5,0
		c0.4,1.4,1.2,2.1,2.5,2.1c3,0,5.9,0,8.9,0.1C387.4,63.1,388.4,62.4,389.1,60.9z"/>
	<path class="st0" d="M203.2,121c1.1,0,2.1,0,3.1,0c0.1,0.5,0.2,0.9,0.3,1.3c0.7,3.1,3.3,4.7,6.4,4c1.8-0.4,3-1.5,3.4-3.2
		c0.5-2.1,0.2-4.2-1.7-5.5c-1.1-0.8-2.4-1.3-3.5-1.9c-1.5-0.8-3.2-1.5-4.6-2.5c-2.5-1.8-2.7-4.5-2.1-7.2c0.6-2.7,2.4-4.3,5-4.8
		c1.5-0.2,3.1-0.3,4.5,0c3.7,0.8,4.9,3.6,5.1,6.7c0,0.2-0.4,0.5-0.6,0.6c-0.8,0.1-1.6,0-2.4,0c-0.1-0.7-0.2-1.3-0.4-1.9
		c-0.7-2.3-2.6-3.3-5.3-2.9c-2,0.3-3.1,2-3.1,4.2c0,1.8,0.9,2.9,2.4,3.7c1.3,0.6,2.6,1.2,4,1.8c0.7,0.3,1.3,0.6,2,1
		c4.4,2.2,4.7,7.1,3.4,10.6c-0.7,1.8-2.1,3-4,3.6c-1.9,0.7-3.9,0.8-5.9,0.3C205.5,128.1,203.3,125.3,203.2,121z"/>
	<path class="st0" d="M223.1,121c1,0,2,0,3,0c0.2,0.8,0.3,1.5,0.6,2.2c0.7,1.9,2.3,3.1,4.3,3.2c2.1,0.1,4-0.4,5-2.5
		c1.1-2.4,0.4-5.2-1.8-6.6c-1-0.7-2.2-1.1-3.2-1.6c-1.5-0.8-3.1-1.5-4.5-2.5c-2.5-1.8-2.7-4.5-2.1-7.3c0.6-2.7,2.5-4.3,5.2-4.7
		c1.3-0.2,2.6-0.2,3.9,0c4,0.6,5.4,3.7,5.6,6.9c0,0.2-0.3,0.5-0.5,0.5c-0.8,0.1-1.7,0-2.5,0c-0.1-0.7-0.2-1.3-0.4-1.9
		c-0.7-2.3-2.6-3.4-5.4-2.9c-1.9,0.3-3.1,2-3,4.3c0,1.7,0.9,2.9,2.3,3.6c1.3,0.7,2.7,1.2,4,1.8c0.6,0.2,1.1,0.5,1.6,0.8
		c4.6,2.2,5.1,6.7,3.8,10.5c-0.7,1.9-2.1,3.2-4,3.9c-2,0.7-4,0.8-6,0.3C225.3,128.1,223,125,223.1,121z"/>
	<path class="st0" d="M123,154.7c2.1,0,4.2,0,6.3,0c0,9.3,0,18.6,0,28c-2.1,0-4.2,0-6.3,0C123,173.4,123,164.1,123,154.7z"/>
	<path class="st0" d="M360.3,154.7c2.1,0,4.2,0,6.3,0c0,9.3,0,18.6,0,28c-2.1,0-4.2,0-6.3,0C360.3,173.4,360.3,164.1,360.3,154.7z"
		/>
	<path class="st0" d="M290.4,182.7c-2.2,0-4.2,0-6.4,0c0-9.3,0-18.6,0-28c2.1,0,4.2,0,6.4,0C290.4,164,290.4,173.3,290.4,182.7z"/>
	<path class="st0" d="M279.4,120.7c1,0,2,0,2.9,0c0,4.6-3.1,9-9.1,8.5c-3.7-0.3-5.8-2.5-6.8-5.8c-1.6-5.4-1.6-10.8,0-16.1
		c0.9-2.8,2.6-5,5.6-5.9c5.3-1.6,10.2,1.8,10.4,7.4c0,0.2,0,0.4-0.1,0.7c-0.9,0-1.8,0-2.6,0c-0.2,0-0.5-0.4-0.5-0.6
		c-0.2-0.6-0.2-1.3-0.4-1.9c-0.6-1.7-1.7-2.8-3.5-3c-1.8-0.3-3.3,0.3-4.5,1.7c-1.1,1.4-1.6,3-1.9,4.7c-0.6,4-0.6,7.9,0.5,11.8
		c0.2,0.6,0.5,1.3,0.8,1.9c0.9,1.7,2.4,2.6,4.4,2.5c2.1-0.1,3.4-1.3,4.1-3.2C279,122.4,279.2,121.5,279.4,120.7z"/>
	<path class="st0" d="M427,104.1c-1.5,0-2.9,0-4.4,0c0,8.2,0,16.3,0,24.4c-1.1,0-2.1,0-3.2,0c0-8.1,0-16.2,0-24.4
		c-1.3,0-2.4,0-3.7,0c0-0.9,0-1.8,0-2.7c1.2,0,2.3,0,3.6,0c0-0.9,0-1.6,0-2.4c0.1-1.5,0-3.1,0.3-4.5c0.8-3.9,3.9-5.6,7.8-4.4
		c0,0.9,0,1.8,0,2.7c-0.8,0-1.6-0.2-2.3-0.1c-1.4,0.1-2.3,0.8-2.5,2.2c-0.2,2.1-0.2,4.2-0.3,6.4c1.6,0,3,0,4.5,0
		C427,102.3,427,103.1,427,104.1z"/>
	<path class="st0" d="M71.6,104.1c-1.4,0-2.6,0-3.9,0c0-0.9,0-1.7,0-2.7c1.3,0,2.5,0,3.9,0c0-2.5,0-4.9,0-7.4c1.1,0,2,0,3.1,0
		c0,2.4,0,4.8,0,7.3c1.7,0,3.3,0,4.9,0c0,0.9,0,1.8,0,2.7c-1.6,0-3.2,0-4.9,0c0,0.4,0,0.7,0,1c0,6,0,12.1,0,18.1
		c0,0.4,0,0.9,0.1,1.3c0.3,1.2,0.9,1.7,2.1,1.7c0.7,0,1.5,0,2.2,0c0,0.1,0.1,0.1,0.1,0.2c0.2,2.3,0,2.6-2.4,2.6c-0.3,0-0.7,0-1,0
		c-2.5,0-4.1-1.4-4.2-4c-0.1-2.1-0.1-4.2-0.1-6.3c0-4.5,0-9,0-13.5C71.6,105,71.6,104.6,71.6,104.1z"/>
	<path class="st0" d="M319.4,104.1c-1.4,0-2.6,0-3.9,0c0-0.9,0-1.7,0-2.7c1.3,0,2.5,0,3.9,0c0-2.5,0-4.9,0-7.4c1.1,0,2,0,3.1,0
		c0,2.4,0,4.8,0,7.3c1.7,0,3.3,0,4.9,0c0,0.9,0,1.8,0,2.7c-1.6,0-3.2,0-4.9,0c0,0.4,0,0.7,0,1c0,6,0,12.1,0,18.1
		c0,0.4,0,0.9,0.1,1.3c0.3,1.2,0.9,1.7,2.1,1.7c0.7,0,1.5,0,2.2,0c0,0.1,0.1,0.1,0.1,0.2c0.2,2.3,0,2.6-2.4,2.6c-0.3,0-0.7,0-1,0
		c-2.5,0-4.1-1.4-4.2-4c-0.1-2.1-0.1-4.2-0.1-6.3c0-4.5,0-9,0-13.5C319.4,105,319.4,104.6,319.4,104.1z"/>
	<path class="st0" d="M160.4,90.1c1,0,1.9,0,2.9,0c0,12.8,0,25.6,0,38.5c-0.9,0-1.9,0-2.9,0C160.4,115.8,160.4,103,160.4,90.1z"/>
	<path class="st0" d="M331.5,101.4c1,0,1.9,0,2.9,0c0,9,0,18.1,0,27.2c-0.9,0-1.9,0-2.9,0C331.5,119.6,331.5,110.5,331.5,101.4z"/>
	<path class="st0" d="M287.5,101.4c1,0,1.9,0,2.9,0c0,9,0,18.1,0,27.2c-0.9,0-1.9,0-2.9,0C287.5,119.6,287.5,110.5,287.5,101.4z"/>
	<path class="st0" d="M83.6,101.4c1,0,1.9,0,2.9,0c0,9.1,0,18.1,0,27.2c-0.9,0-1.9,0-2.9,0C83.6,119.6,83.6,110.5,83.6,101.4z"/>
	<path class="st0" d="M407.2,46c-2.7,0-4.8-2.2-4.8-4.9c0-2.7,2.1-4.8,4.8-4.8c2.8,0,4.9,2.2,4.9,4.9C412,43.8,409.8,46,407.2,46z"
		/>
	<path class="st0" d="M290.5,144.3c0,2.1,0,4.2,0,6.3c-2.1,0-4.2,0-6.4,0c0-2.1,0-4.2,0-6.3C286.2,144.3,288.3,144.3,290.5,144.3z"
		/>
	<path class="st0" d="M123,150.6c0-2.1,0-4.2,0-6.3c2.1,0,4.2,0,6.4,0c0,2.1,0,4.2,0,6.3C127.3,150.6,125.2,150.6,123,150.6z"/>
	<path class="st0" d="M360.3,150.7c0-2.2,0-4.2,0-6.3c2.1,0,4.2,0,6.4,0c0,2.1,0,4.2,0,6.3C364.5,150.7,362.4,150.7,360.3,150.7z"/>
	<path class="st0" d="M287.5,90.1c1,0,1.9,0,2.9,0c0,1.8,0,3.6,0,5.4c-1,0-1.9,0-2.9,0C287.5,93.7,287.5,91.9,287.5,90.1z"/>
	<path class="st0" d="M334.4,90.1c0,1.8,0,3.6,0,5.4c-1,0-2,0-3,0c0-1.8,0-3.6,0-5.4C332.4,90.1,333.4,90.1,334.4,90.1z"/>
	<path class="st0" d="M83.6,90.1c1,0,1.9,0,2.9,0c0,1.8,0,3.6,0,5.4c-1,0-1.9,0-2.9,0C83.6,93.7,83.6,91.9,83.6,90.1z"/>
	<path class="st0" d="M392.5,51c-0.4,0.3-0.8,0.4-1.1,0.7c-0.6,0.4-1,0.2-1.4-0.2c-0.6-0.6-1.2-1.3-1.8-1.9c-1.3-1.3-1.3-1.7,0-3.2
		C389.6,47.9,391,49.4,392.5,51z"/>
	<path class="st0" d="M415.8,26.9c-0.7,0.6-1.3,1.2-1.9,1.7c-1-1-2-2-3.1-3.1c0.6-0.6,1.1-1.3,1.7-1.9
		C413.6,24.7,414.7,25.7,415.8,26.9z"/>
	<path class="st0" d="M172.5,170.3c-0.2,1.9-0.3,3.5-0.6,5.1c-0.4,1.9-1.7,2.6-3.8,2.5c-1.5-0.1-2.5-1.1-2.7-2.9
		c-0.4-2.3,0.8-4.1,3.1-4.4C169.8,170.4,171,170.4,172.5,170.3z"/>
	<path class="st0" d="M309.3,165.7c-2.7,0-5.2,0-7.8,0c0-1.7,0.1-3.4,1.2-4.8c0.9-1.2,2.1-1.4,3.4-1.2c1.2,0.2,2.1,0.9,2.4,2
		C308.9,163,309,164.3,309.3,165.7z"/>
	<path class="st0" d="M95.3,165.7c-2.7,0-5.2,0-7.8,0c0-1.8,0.1-3.6,1.3-5c1.6-1.8,4.8-1.3,5.6,1C95,162.9,95,164.3,95.3,165.7z"/>
	<path class="st0" d="M56.4,165.7c-2.7,0-5.2,0-7.8,0c0-1.8,0.1-3.6,1.3-5c1.6-1.8,4.8-1.3,5.6,1C56,162.9,56.1,164.3,56.4,165.7z"
		/>
	<path class="st0" d="M193.1,113.2c-2.8,0-5.6,0-8.4,0c1.3-5.9,2.7-11.8,4.1-17.9C190.2,101.4,191.7,107.3,193.1,113.2z"/>
	<path class="st0" d="M61.6,117.9c-0.3,1.7-0.4,3.3-0.9,4.9c-0.8,2.7-3.2,4-5.9,3.5c-2.6-0.5-4.2-3.1-3.7-6.1c0.4-2.6,2.1-4.3,5-4.7
		c1.5-0.2,3-0.2,4.4-0.2c0.7,0,1,0.3,1,1c-0.1,0.5,0,1,0,1.5C61.4,117.9,61.5,117.9,61.6,117.9z"/>
	<path class="st0" d="M150.7,118c-0.3,1.6-0.4,3.3-0.9,4.8c-0.8,2.6-3.2,4-5.8,3.5c-2.7-0.5-4.3-3.1-3.8-6.1c0.4-2.6,2-4.2,4.9-4.7
		c1.5-0.3,3-0.2,4.5-0.2c0.7,0,1,0.3,0.9,1c-0.1,0.5,0,1.1,0,1.6C150.6,118,150.6,118,150.7,118z"/>
	<path class="st0" d="M309.4,117.9c-0.3,1.6-0.4,3.3-0.9,4.9c-0.8,2.7-3.3,4-5.9,3.5c-2.6-0.5-4.2-3.2-3.7-6.1
		c0.4-2.5,2-4.2,4.8-4.7c1.5-0.3,3.1-0.2,4.7-0.2c0.7,0,0.9,0.3,0.8,0.9c0,0.5,0,1.1,0,1.6C309.3,117.9,309.3,117.9,309.4,117.9z"/>
	<path class="st0" d="M107.2,114.9c-0.4,2.4-0.6,4.9-1.2,7.2c-0.4,1.7-1.4,3.2-3.2,3.9c-2.2,0.8-4.5,0.1-5.8-2.1
		c-1.1-1.8-1.5-3.7-1.6-5.8c-0.3-3.2-0.3-6.5,0.5-9.6c0.2-0.7,0.5-1.5,0.8-2.2c0.9-1.8,2.4-2.7,4.4-2.7c2,0,3.4,1,4.3,2.7
		c1.1,2.2,1.4,4.5,1.5,6.9c0,0.5,0,1,0,1.5C107.1,114.9,107.2,114.9,107.2,114.9z"/>
	<path class="st0" d="M258.4,114.9c-0.4,2.4-0.6,4.9-1.2,7.2c-0.4,1.7-1.4,3.2-3.2,3.9c-2.2,0.8-4.5,0.1-5.8-2.1
		c-1.1-1.8-1.5-3.7-1.6-5.8c-0.3-3.2-0.3-6.5,0.5-9.6c0.2-0.7,0.5-1.5,0.8-2.2c0.9-1.8,2.4-2.7,4.4-2.7c2,0,3.4,1,4.3,2.7
		c1.1,2.2,1.4,4.5,1.5,6.9c0,0.5,0,1,0,1.5C258.2,114.9,258.3,114.9,258.4,114.9z"/>
	<path class="st0" d="M355.1,114.9c-0.4,2.4-0.7,4.8-1.2,7.1c-0.1,0.7-0.5,1.5-1,2.1c-1.9,3.1-6,3.1-8,0c-1.1-1.8-1.5-3.8-1.7-5.9
		c-0.3-3.2-0.3-6.5,0.5-9.6c0.2-0.8,0.5-1.5,0.9-2.2c0.9-1.7,2.4-2.6,4.3-2.7c2,0,3.4,0.9,4.3,2.7c1.2,2.2,1.4,4.6,1.5,7
		c0,0.5,0,0.9,0,1.4C354.9,114.9,355,114.9,355.1,114.9z"/>
	<path class="st0" d="M410.6,115c-0.4,2.3-0.7,4.7-1.1,7c-0.1,0.7-0.5,1.5-0.9,2.1c-2,3.1-6.1,3.1-8-0.1c-1.1-1.8-1.5-3.8-1.7-5.9
		c-0.3-3.2-0.3-6.4,0.5-9.5c0.3-1,0.6-1.9,1.2-2.8c1.9-2.9,6-2.9,7.9-0.1c1.6,2.3,1.8,4.9,1.9,7.5c0,0.5,0,1.1,0,1.6
		C410.4,114.9,410.5,115,410.6,115z"/>
</g>
</svg>
